<svg id="Layer_1" data-name="Layer 1" xmlns="http://www.w3.org/2000/svg" viewBox="0 0 2318.29 3261.49"><path d="M1134,222.81l0,0,0,0ZM613.14,234.29A350.75,350.75,0,0,1,666.68,239q-3.34,0-6.64.05c-17,0-32.86-1.16-46.9-4.79Zm-85.6-71.19c6.45,7.76,12.3,16.23,18.16,24.76,9.83,14.31,19.82,28.9,32.86,39.07h0c-26.4,1.8-55.8,6.43-83.57,16.39q1.57-4.24,3.15-8.53c8.74-23.69,17.79-48.19,29.4-71.69Zm616.2,77.82c3.83,7.53,8.54,16.75,13.87,26.45-2.49.2-5.25.36-8.32.47-1.86-9.44-3.66-17.94-5.17-25.1h0c-.13-.62-.26-1.23-.39-1.82ZM944,8.55a68.53,68.53,0,0,1,9.48.62c18.84,2.6,32.8,14,46.88,31.65,7.76,9.75,15.41,21.22,23.89,33.95,10.15,15.23,21.41,32.13,35.21,49.46,17.75,22.29,39.65,45.22,59.53,66h0c33.08,34.65,57.29,60.74,55.66,70.86-.37,2.31-3,3.95-8.27,5.06-6-10.79-11.37-21.29-15.72-29.84-4.63-9.09-8.52-16.86-10.71-19.19l-.3-.31a4.94,4.94,0,0,0-3.39-1.45,4.42,4.42,0,0,0-4,2.68,5.43,5.43,0,0,0-.46,2c-.24,3.32,1.79,12.67,4.27,24.4,1.44,6.82,3.13,14.79,4.86,23.57h0c-1.52,0-3.09,0-4.72,0l-8.42,0c-2.94,0-5.91,0-9,0h-.3c-24.5,0-53,.79-76.07,9.38a98.36,98.36,0,0,0-46.67,36.47c-12.56-49.45-42.39-109.4-80.67-127.62a66.83,66.83,0,0,0-29.15-6.38h0c-33.14,0-69.54,21.2-104.54,41.56-27.32,3.78-56.46,7.73-76.11,21.85a4,4,0,0,0,.26-1.14,4.12,4.12,0,0,0-3.23-4.37c-26.4-5.78-53.09-11.63-94-11.75H607c-4.67,0-9.53.07-14.55.24a66.94,66.94,0,0,1-7.37-4.74c-12.5-9.22-22.12-23.14-32.54-38.31-6.42-9.33-13.11-19.1-20.91-28.06h0c9.52-18.11,20.75-35.5,34.74-51.3,38.12-43,96.5-74.13,131.94-75.68.94,0,1.85-.06,2.76-.06h.06c14.4,0,25.15,4.9,36.91,10.31,12.16,5.6,25.29,11.69,43.53,11.69a90.17,90.17,0,0,0,12-.83c17.74-2.41,40-10.35,62.63-18.41,30.93-11,62.74-22.29,87.83-22.29ZM480.57,258.11c-16.95,43.93-35,82.34-64.83,119.72-7.5,9.39-15.74,18.75-24.14,28.12a81.91,81.91,0,0,1-4.16-40.25h0c5.66-37.74,39.28-79.12,83.17-102.63h0q4.9-2.62,10-5ZM429.21,123.9c25.38,0,52.45,4.34,72.15,16a93.17,93.17,0,0,1,20.28,16.54h0c-12.63,25-22.19,50.95-31.25,75.5q-2.83,7.69-5.64,15.22h0l-.06.16h0c-6.12,2.54-12.13,5.36-18,8.49h0c-45.41,24.32-81.28,67.6-87.43,108.68a90.45,90.45,0,0,0,6.14,48.34h0c-7.19,8-14.39,16-21.16,24l.12-.57c2.64-13.2.44-29.06-1.74-45.09-2.61-19.16-5.28-39.12-1.47-58.14h0a74.54,74.54,0,0,1,7.88-21.78C384,284.41,419.6,261,444.62,244.7h0c11.86-7.73,22.77-14.68,25.46-19.52l.06-.12.19-.38h0a6.07,6.07,0,0,0-2.73-8.3l0,0c-2.17-1.16-5.1-1.44-7.91-1.44h0c-17.31,0-58.63,11.75-86.68,32.18s-42.68,49.31-58.36,80c-5.65,11-11.42,22.32-18,33.71C272,403.21,237.55,444.3,202.1,444.3c-1.23,0-2.47-.05-3.71-.15h0a57.27,57.27,0,0,1-17.9-4.71h0c-10.72-10.22-21.83-18.16-32.19-22.54h0c-17.76-17.26-31.58-39.28-35.51-55.64-4.8-20,5.87-30.49,18.75-42.82,4.9-4.69,10.15-9.7,14.38-15.47,5.14-7,8.64-15,12.17-23,4.09-9.28,8.31-18.83,15.29-28.36a95.53,95.53,0,0,1,19.28-19.54c19.76-15.16,51.73-29.24,81.12-42.16,17-7.49,33.2-14.6,45.12-21.19h0c14-7.74,22.14-14.78,29.1-20.78h0c5.4-4.66,9.87-8.51,15.88-11.83a71.55,71.55,0,0,1,16.06-6.32c12.36-3.4,30.14-5.87,49.26-5.87Zm563,213.3c3.12,18.91,3.81,36,4.47,52.12.67,16.69,1.3,32.49,4.7,47.68.71,3.15,1.54,6.29,2.52,9.41h0a126,126,0,0,0,7.34,18.16c-12.56-17.9-21.92-36.45-26.06-56.25a119.7,119.7,0,0,1,7-71.12ZM590.5,234.57c19.8,10.28,44.23,12.78,69.54,12.78,13.6,0,27.66-.74,41.59-1.45h0l.24,0h0a52.74,52.74,0,0,0-11.67,13.51c-6.63,11.05-9.55,25.3-11,40.46-1.11,11.59-1.37,24-1.64,36.39-.27,12.62-.54,25.15-1.66,36.95-1.48,15.49-4.43,29.79-7,42.48-3.75,18.13-7.41,34.75-2.61,44.95a18.66,18.66,0,0,0,4.12,5.69c-16.21,5.81-32.06,11.36-47.55,11.88-.79,0-1.6,0-2.4,0h0a84.65,84.65,0,0,1-12.77-1c-14.84-2.29-29.56-8-44.52-13.89C548.88,457.72,534.33,452,520,449.79a107,107,0,0,0-16.42-1.18h0a255.53,255.53,0,0,0-27.12,1.9,227.24,227.24,0,0,1-23.77,1.73h0c-8.34,0-16.13-1-23.48-4-13.48-5.49-26-17.85-34-33.91h0c9.28-10.32,18.6-20.79,27-31.35,32.25-40.46,51-82,68.94-129.37h0c32.69-12.93,68.58-17.82,99.36-19ZM719.74,462.43a46.8,46.8,0,0,1,7,.49c21.84,3.22,41.14,23,60.45,48.19-18.34-14.69-36.94-27.67-55.61-34.63-10.46-3.9-20.87-5.89-29.84-7.61-3-.58-5.8-1.11-8.4-1.68,8.58-2.61,16.77-4.47,24.6-4.73l1.77,0ZM885.92,188.1a58.57,58.57,0,0,1,25.6,5.58h0c36.44,17.35,66.6,78.87,77.9,129.26l.18.79h0C975.35,349.55,971,381.19,977.08,410a142.8,142.8,0,0,0,14.33,38.24c-36.22-28.63-74.49-47.76-100.53-47.76a47.93,47.93,0,0,0-5.14.26c-32.69,3.48-41.06,41.14-48.75,73.39-4.92,20.63-9.64,40.11-18.67,53h0a47.53,47.53,0,0,1-4.9,5.93c-25.23-35.38-52.06-73.36-85.52-78.29a55.42,55.42,0,0,0-8.14-.58h0c-.71,0-1.42,0-2.12,0-12.28.41-25.1,4.31-37.79,8.73a12.84,12.84,0,0,1-6.1-5.83h0c-3.31-7-.85-20,3.23-39.76,2.61-12.65,5.66-27.37,7.18-43.36h0c1.16-12.15,1.43-25,1.7-37.55h0c.27-12.42.53-24.55,1.6-35.79,1.42-14.82,4.2-27.56,9.85-37,14.33-23.89,48.5-29,86-34.16a4.1,4.1,0,0,0,1.52-.52C820.78,208,855.28,188.1,885.91,188.1Zm788.3,346.17,2.62,1ZM1810,402.34c1.39,0,2.74.05,4.06.14,7.58.52,14,2.41,20.46,4.29,5.5,1.62,11.16,3.3,17.07,3.71,1.06.07,2.13.1,3.18.1a103.94,103.94,0,0,0,11-.77,93.45,93.45,0,0,1,9.88-.72h0c6.94,0,13,1.65,18.29,8.88,6.41,8.71,11.47,24.61,12.62,40.46h0c-2.19,7.2-2.9,16.17-2.32,25.84h0a35.74,35.74,0,0,1-4.93,10.28c-8.6,12.06-26.35,16.78-47.66,16.78A201.09,201.09,0,0,1,1817,508c-8.48-1.51-16.59-3.39-24.55-5.24-15.22-3.54-30.06-7-45.09-7h0a85.79,85.79,0,0,0-20.64,2.42h0c-25,6.12-53.23,25.89-56.44,34.67a7.32,7.32,0,0,0-.31,1,5.49,5.49,0,0,0,4.43,6.71l.59.11h0a8.49,8.49,0,0,0,1.31.09c4,0,11.49-2.3,19.56-4.72h0c15.31-4.6,35.86-10.73,53.62-10.73h0a58.78,58.78,0,0,1,11.29,1,47.45,47.45,0,0,1,13.88,5.13c10.94,6,19.69,15.65,28.26,25.13,5.9,6.52,11.88,13.19,18.34,17.79h0c-5,.07-10.09.23-15.15.39a61.08,61.08,0,0,0-21.83-23.38h0c-12.53-7.71-28.81-11.39-45.86-11.39h0a129.68,129.68,0,0,0-47.31,9.13h0c-3.91,1.55-7.73,3.3-11.47,5.21-3.17-1.13-6.31-2.27-9.56-3.45h0c-15.88-5.75-32.73-11.87-50.42-16.14h0a58.93,58.93,0,0,1,.38-15.8c4.35-25.73,29.61-53.3,45.87-64.46a45.74,45.74,0,0,1,9.7-5.24,58.65,58.65,0,0,1,12.41-2.89,103.93,103.93,0,0,0,23.12-5.9c8.46-3.23,19-8.38,30-13.76,19-9.34,39.54-19.35,55.36-22.81a62.48,62.48,0,0,1,13.54-1.52Zm-71.57,146c16,0,30.61,3.46,41.46,10.15A52.33,52.33,0,0,1,1796.59,575h0c-4.79.13-9.53.23-14.2.23q-3.86,0-7.61-.1c-30-.83-56-7.46-83.85-16.93h0c1.09-.47,2.18-.92,3.28-1.36a121.47,121.47,0,0,1,44.21-8.53ZM621.63,578.72s0,0,0,.08a.35.35,0,0,1-.05.08.74.74,0,0,1,.1-.16Zm999.39-35c15.87,4.08,31.24,9.63,46.2,15l2.72,1h0c-14.71,8.93-27.81,20.09-38.84,31.18-.29-10-3.1-20.14-5.78-29.91h0c-1.6-5.83-3.17-11.58-4.3-17.29ZM861.63,637Zm-137.78,1.4c.09,0,.06,0-.16.09l-.26,0h0a2.75,2.75,0,0,1,.43-.06Zm-.51.08s.06,0,.16.06l-.36.07-.3,0,.5-.15Zm.35,8.37Zm-.24-2.69c.18.9.34,1.79.49,2.67l-.49,0h0Zm.49,2.69h0l-.35.06h-.05l-.27,0-.2,0,.31,0,.16,0,.4,0Zm-.2.12h0Zm-.36,0c-.31.07-.37.12-.26.12a2.56,2.56,0,0,0,.55-.1h0l-.28,0Zm1421.53,7.31a101.22,101.22,0,0,1,34.8,6.11c-2.95-.48-6-1-9.22-1.56-9.35-1.6-19.56-3.35-29.83-4.47h0c1.4-.05,2.82-.08,4.24-.08ZM509.13,673Zm11.5,23.8ZM370.56,700Zm0,0Zm0,0ZM1928,449.3a33.66,33.66,0,0,1,7.08.87c9.53,2.1,21.06,7.57,33.27,13.38,12,5.71,24.63,11.76,35.51,14.16a54,54,0,0,0,11.66,1.3h0c11.23,0,20.15-3.7,27.25-6.61h0c5.7-2.34,9.72-3.92,13.38-3.92h0a10.39,10.39,0,0,1,4.18.85h0c3,1.28,6.42,4.33,10.3,9.07h0c5,6.13,10.14,14.27,15.55,22.88,5.53,8.78,11.33,18,17.34,25.37,1.78,2.18,3.57,4.18,5.38,6.05,6.64,6.87,13.57,12,20.91,17.51,9.12,6.81,19.15,14.3,31.08,26.64,25.54,26.41,55.31,70,51.45,82.28-.5,1.61-2.35,3.25-8.47,3.59-20.79-12.47-40.73-16.83-59-16.83h0a120,120,0,0,0-16.12,1.1,107.78,107.78,0,0,0-27.7,7.3h0c-27.87,3.42-52.47,14.77-67.6,35.85a90.76,90.76,0,0,0-9,15.81c3.37-17.89,8.32-33.69,16.47-45.73,8.28-12.23,20-20.74,30.36-28.23,8.93-6.45,18.65-13.14,20.56-21.54a11.74,11.74,0,0,0,.25-1.42c2.23-17.69-26.61-34-57.82-38h0a277.69,277.69,0,0,0-27.82-1.54c-26.7-.61-52.11-1.4-69.27-19.7-.48-.51-1-1-1.43-1.58-13.82-16-21.65-41.89-23.12-63.13h0a80,80,0,0,0,2.31-25.65h0a17.41,17.41,0,0,1,4.59-7.5c2-1.75,4.74-2.65,8.43-2.65Zm-270.08,262Zm0,0Zm0,0Zm-1632.43,1Zm0,0ZM1904.1,567.05c11,0,21,5.06,30.53,22,4.16,7.35,8.19,16.88,12.16,27.64,4.46,12.09,8.78,25.52,13.06,38.88,4.16,13,8.29,25.85,12.48,37.18,2.63,7.12,5.27,13.62,7.93,19.63-7.68-8.26-15.59-15.65-23.17-22.74-12.77-12-24.51-23-33.43-36-5.5-8.07-10-17-14.5-26-8.67-17.3-17.67-35.59-34.65-44.77a57,57,0,0,0-11.65-4.64h0c4.66-1.35,9.27-3,13.67-4.53,4.77-1.68,9.27-3.27,13.55-4.44a53.45,53.45,0,0,1,14-2.17h0Zm36.42,149.37ZM409,717.6Zm0,0ZM1942.19,720ZM347.91,726Zm0,0Zm0,0Zm1335.05.25Zm0,0Zm299.48,1.35ZM564.83,728.79Zm0,0Zm0,0Zm0,0Zm0,0Zm0,0ZM724,646.91c2.39,13.9,1.71,26.28-4,31.77-3.35,3.25-9.16,4.65-17.22,4.65a176.37,176.37,0,0,1-21.58-1.9,165.18,165.18,0,0,0-19.54-1.75h0c-4.55,0-9.11.52-12.71,2.45a14,14,0,0,0-3.12,2.27h0c-6.56,6.3-5.82,18.09-5.51,26.89.39,11.26.38,19.83-4.18,24.21h0c-3,2.84-8.62,4.55-16.53,4.56h0c-16.25,0-37.61-7.24-49.33-17.47a28.6,28.6,0,0,1-8.25-11.1c-4.13-10.86,2-26.09,35.11-38.68,38.39-14.6,109.12-23.67,124.17-25.6l2-.25.11,0,.21-.05c.1,0,.14,0,.15.06l.21-.06Zm956.34-83.48c31.26,11,60.17,19.17,94.25,20.12,2.59.07,5.21.1,7.84.1,6.11,0,12.32-.16,18.49-.36h0c4.24,10.25,5,21.06,2.21,29.56-3,9.12-10,16-18.54,24.15-6.5,6.22-13.72,13.1-19.11,21.92-5.09,8.33-8.44,18.25-11.67,27.77h0c-3.42,10.06-6.73,19.75-11.78,28a53.38,53.38,0,0,1-5.79,7.83c-6.23,6.91-14.8,12.18-23.94,17.51a13.76,13.76,0,0,0-.93-2.73c-3.35-7.32-13.91-12.79-24.37-18.46h0a253.22,253.22,0,0,1-24.24-14.41c-6.37-4.41-12.75-9.56-19.23-14.79-6.32-5.11-12.74-10.3-19.1-14.7-8.29-5.75-16.92-10.48-25.63-11.9a35.13,35.13,0,0,0-5.67-.45h0c-.83,0-1.65,0-2.47.08,16.79-17.95,34.16-37.07,39.11-58.19h0c13.45-14.7,30.74-30.27,50.58-41.06Zm30.91,187Zm0,0Zm194.85-251c3.66,20.2,12,41.09,23.42,54.25.54.61,1.09,1.23,1.64,1.82,20,21.31,49.35,21.76,75.19,22.34,9.48.22,18.54.43,27,1.49h0c32.87,4.15,51.66,19.91,50.56,28.63,0,.2-.06.39-.1.59-1,4.53-7,9.17-17.31,16.62s-23.15,16.69-32.38,30.32c-15.88,23.46-20.38,59.22-23.68,95a302.64,302.64,0,0,1-30.17-60.61c-4.11-11.13-8.19-23.84-12.36-36.84-4.28-13.33-8.64-26.93-13.18-39.23-4-10.9-8.24-20.92-12.72-28.85-10.66-18.88-23.08-26.28-37.83-26.28h0a61.61,61.61,0,0,0-16.25,2.48h0c-4.62,1.27-9.41,3-14.12,4.62-5,1.75-9.87,3.47-14.75,4.81a58.77,58.77,0,0,1-15.45,2.43,28.76,28.76,0,0,1-14.22-3.45c-6.53-3.59-12.76-10.41-20.17-18.61-8.39-9.29-18.05-20-30.44-26.85h0a56.05,56.05,0,0,0-16.31-6h0a66.44,66.44,0,0,0-12.88-1.16h0c-19.22,0-41,6.57-56,11.09-4.8,1.43-8.68,2.59-11.64,3.34,8-7.37,27.42-20.29,46.91-25.06a77.28,77.28,0,0,1,18.62-2.18h0c13.9,0,27.78,3.2,43.2,6.78,7.93,1.84,16.24,3.77,25,5.33h0a209.48,209.48,0,0,0,36,3.48c21.71,0,43.29-4.64,54.45-20.23Zm-29.14,251.15Zm0,0ZM2078.25,668a115.39,115.39,0,0,0-22.36,24.83c-9.1,13.36-17.14,30-23.57,43.24h0c-4,8.29-7.3,15.05-9.88,19.23a72.29,72.29,0,0,1,.68-13.62c1.88-14.26,7.25-32.84,17.16-46.64,9.07-12.64,22.22-21.58,38-27Zm-1310,90.66Zm-431.09-284a93.54,93.54,0,0,0-9.78,25.43c-5.79,27.88,6.23,55.54,17.89,82.72,6,14.07,12.07,28.12,16.09,42.57,6.52,23.43,7.8,48.07,9.16,74.55,1.05,20.28,2.14,41.58,5.78,63.75-5.74-12.85-12.64-26.65-21.25-41.81-9-15.89-19.91-33.27-30.88-50.79-11.29-18-22.69-36.25-32.37-53.31-8.62-15.17-15.79-29.3-20.32-41.48C257.32,538.08,269,519,293,502.55h0c5.64-3.87,11.95-7.58,18.55-11.46,6.84-4,14-8.2,20.66-12.8h0q2.55-1.76,5-3.61Zm1451.32,289.5h0Zm-.27-.09a2.47,2.47,0,0,1,.57.09h-.25c-.36,0-.44-.09-.33-.09Zm.06,4.17h0Zm1.23,4a1.09,1.09,0,0,1-.34.12s0,0,.13-.08h0l.21,0ZM523.32,787.92Zm0,0Zm202.15-50.35c-12.49,28.62-26,52.07-44.86,60.56,1.29-1.73,2.59-3.48,3.91-5.23l.9-1.2.9-1.2c12.79-17,25.91-34.87,39.15-52.93Zm972,21.52a116.93,116.93,0,0,0-8.64,17.94c-3.29,9.17-4.91,19.69-5.7,30.74-2.42-15.16-2.29-28.22,3.56-37.66a31.86,31.86,0,0,1,3.34-4.42,50.93,50.93,0,0,1,7.43-6.6Zm274.31,59.71Zm0,0Zm-1606.6,6.9Zm94.44-602.53c.51,0,1,0,1.37,0h0c-3.3,3-10.5,7.78-20.92,14.58-24.44,16-62.15,40.44-78.28,69.47a83,83,0,0,0-8.76,24.17c-4.13,20.61-1.19,42,1.38,60.87,2.25,16.5,4.14,30.81,1.83,42.36-3.16,15.73-14.42,26.94-28.8,36.83h0c-6.41,4.41-13.28,8.45-20.16,12.49-6.55,3.84-13.13,7.7-19.05,11.77h0c-26.62,18.29-40.18,41.19-24.49,83.44,4.76,12.81,12.18,27.38,20.88,42.69,9.78,17.24,21.28,35.6,32.55,53.61h0c11,17.56,21.78,34.78,30.7,50.49,23.14,40.77,33.72,71.38,42.93,101-46.51-32.56-93.86-64.21-137.68-68.86a115.76,115.76,0,0,0-12.4-.64h0c-19.73,0-38.25,4.63-53.69,8.48-11.87,2.95-21.53,5.33-29.08,5.33a18.9,18.9,0,0,1-8.71-1.71,10.45,10.45,0,0,1-1-.57c-13.2-8.57-11.5-47.95,15.64-89.77,7.09-10.93,15.8-21.74,24.81-32.92,24.77-30.74,52.25-64.5,47.21-107.47-3.38-28.75-21.71-62.09-43.75-87.21h0a52.53,52.53,0,0,0,5.54.73h0c1.47.13,2.92.18,4.37.18h0c40.83,0,77.47-45.9,101.65-87.65,6.72-11.6,12.59-23.07,18.22-34.09,15.83-30.95,29.76-58,55.88-77,26.78-19.51,66.42-30.6,81.81-30.6ZM396,840.67Zm1378.59.32-.15.15h0l-.14.11h0a1.53,1.53,0,0,1,.31-.26ZM285.18,799.29c2.69,0,5.4.1,8.11.31,26.19,2,53.36,14.19,71.93,26.1,11.53,7.39,18.37,13.83,20.69,17.16h-.11a28.13,28.13,0,0,1-2.91-.17h0c-7.44-.77-19.75-3.9-34.93-7.76-21.72-5.54-48.7-12.42-72.93-14.92a195.08,195.08,0,0,0-20.3-1.09h0a153.38,153.38,0,0,0-42.05,5.59c22.6-16,47.26-25.22,72.52-25.22ZM386.9,843.78h3.94l-4,.79a1.63,1.63,0,0,1,.11-.79Zm1393.84,2.93a.61.61,0,0,1-.12.15s0,0,0,0h0l.12-.11ZM1395.64,663c4.64,55.27,9.43,112.9-.15,154.49h0A127.41,127.41,0,0,1,1383,850.82c-2-18.82-4.28-39.64-8-58.12-2.88-14.37-6.62-27.28-10-38.85-2.81-9.7-5.31-18.36-6.91-26.34-2.89-14.45-2.61-25.85,3.78-36s19.15-19.5,33.7-28.54Zm294.47,185.84h.85l-2.11,3.62-1.76-3.07h0c1-.14,2-.33,3-.55Zm-.88,4ZM231.7,853.1Zm1637.05-65.78c8.16,0,12.28,4.9,12.43,13.58.26,15.91-12.24,36.33-20.16,37.17l-.51,0h0c-3.29,0-7-3-12.31-7.83-3.93-3.56-9.64-9.08-15.88-9.08a10.74,10.74,0,0,0-4,.76c-5.8,2.3-10.76,10.33-14.75,16.52h0c-5.43,8.39-10.13,15.32-15,17.26a6.48,6.48,0,0,1-1.76.44,6.08,6.08,0,0,1-.61,0h0c-4.28,0-9.71-4-14.9-10h0l.25-.23c7.41-6.8,41.88-38.42,65.36-51.44,9.41-5.23,16.65-7.22,21.86-7.22Zm-706.7-512c10,17.41,21.69,35.24,33.81,46.79a79.62,79.62,0,0,0,12.37,9.69c17.39,11,34.69,11.65,48,12.2h0c9.6.41,16,.8,20.29,3.48l.64.43c4.53,3.29,7.1,9.77,10.74,19.58,5,13.54,11.55,31.22,30,44.65,16.26,11.8,41.65,20.16,63.3,27.34h0c20.89,6.92,37.11,12.46,42.3,18.26a5.3,5.3,0,0,1,1.54,4.35c-.29,3.52-2.87,8.13-7.46,16h0c-8.94,15.29-22.68,38.8-26,78.53-2.25,26.9.29,61.22,3.27,97.06h0c-16.25,9.87-32,20.84-40,33.44-8.1,12.81-8,26.82-4.91,42.09,1.67,8.39,4.3,17.42,7.08,27,3.36,11.6,7,24.18,9.8,38.17,3.61,18,5.82,38.48,7.87,57.41.37,3.45.73,6.92,1.11,10.37h0a101.19,101.19,0,0,1-8.75,10.41c-33.82-22.38-67.55-45.11-111.46-99.43h0c-44.94-55.59-99.95-143.55-112.95-211.89a191.1,191.1,0,0,1-3.25-42.14c.75-23.67,5.45-45.74,10.33-68.58,5-23.53,10.21-47.84,11.06-74.89,1-32.94-4.35-69.82-9.9-99.48h0c3.88-.13,7.66-.38,11.18-.84ZM549.83,535.14c8.39,0,17.71,1.9,27.39,4.79,10.54,3.16,21.23,7.41,31.33,11.42h0c8.63,3.44,16.91,6.73,24.05,8.87a73.37,73.37,0,0,0,21.49,3.42c6.89,0,13-1.11,19.44-2.26a153,153,0,0,1,29.65-3.06h1c5.71,0,12.2.4,19.27.8,8.59.48,18,1,27.52,1,20.07,0,41.7-2.33,58.43-13.21a13,13,0,0,0,.29,4.48h0c1.67,7.3,9.4,16.68,17.38,26.55,13.21,16.36,29.34,36.44,34.53,59,.48,2.08.87,4.2,1.17,6.34,2.81,19.8-1.55,41.65-6.33,65.36-5.12,25.4-10.67,52.72-6.83,79.91,4.53,32,22,63.47,32.12,81.68,1.11,2,2.09,3.76,2.94,5.33-24.63-19.06-88.9-80.54-109-120.67-8.07-16.11-8.81-28.42-6.51-38.87h0c2-9.29,6.51-17.39,11.23-25.88,4.43-8,9.14-16.35,11.21-25.78,6.67-30.4-14.26-69.4-40.37-85-11.27-6.76-23.43-9.18-35.88-9.18h0c-17,0-34.84,4.51-52.08,8.83a4.13,4.13,0,0,0,1,8.14,4.23,4.23,0,0,0,.79-.08c5.52-1.07,10.58-2,15.52-2,8.66,0,17.3,2.93,26,16,6.56,9.89,12.34,24,15.68,37.59h0l-1,.09c-6.64.59-29.34,2.63-52.86,2.63-22.61,0-44.49-1.93-54.38-7.8-.28-.17-.55-.34-.81-.52-10.27-6.83-5.52-20.7,3.74-34.62h0a147.76,147.76,0,0,1,10-13.09c.55-.66,1.09-1.31,1.39-1.7l.15-.22v0h0a4.6,4.6,0,0,0,.78-2.46,4.13,4.13,0,0,0-4.14-4.14,4.22,4.22,0,0,0-2,.52h0a5.68,5.68,0,0,0-.75.5c-.59.47-1.84,1.63-3.37,3-9.16,8.45-35.33,32.55-62.32,47.29a204,204,0,0,1-41.78,16.68q-5,1.44-10,2.72a65.45,65.45,0,0,1-1.78-8.5c-4.39-29.76,3.63-85.75,28.78-99.85,5.11-2.86,11.17-4.12,18-4.12Zm341-126.38c28.32,0,74.76,25.95,115.11,62.7,14,19.58,31.45,38.14,49.59,56.28h0a219.47,219.47,0,0,1,14,23.4c11.57,22.62,17.47,45.47,20.25,67.81,3.48,27.92,2.06,54.93.76,79.76-1.07,20.4-2.09,39.55,0,56,3.16,25.44,13.58,44.34,22.18,60,9.49,17.29,15.94,29.5,12,42.93h0c-1.86,6.28-6.08,13.07-12.19,20.45-32.56-15.48-61.91-36.82-83.31-64.54q-2.94-3.81-5.69-7.78c-23.5-33.89-37-76-49.92-116.42-11.5-36-22.64-70.92-40.27-96.36-29-41.76-75.08-57.63-101.31-57.63h0a47.49,47.49,0,0,0-10.47,1,51.77,51.77,0,0,0,3.59-4.6c10.13-14.42,15.15-35.7,19.94-55.79h0c8.34-34.95,16-64.36,41.6-67.09a41.08,41.08,0,0,1,4.24-.21Zm1.94,472.33h0Zm484.32-7.32c.38,3,.77,6,1.19,8.81-1.76-1.44-3.53-2.86-5.33-4.26h0c1.42-1.47,2.81-3,4.15-4.55ZM889,884.36v.11s0,0,0-.11ZM1593.07,671a26.75,26.75,0,0,1,4.34.36c6.82,1.1,14.19,5,22.2,10.51,6.06,4.2,12.23,9.18,18.61,14.33s13,10.54,19.71,15.16a261.19,261.19,0,0,0,25,14.89c11.91,6.46,18.87,10.49,20.75,14.59a6.67,6.67,0,0,1,.37,4h0c-7.45,4.43-14.79,9.24-20.21,15.26a38.44,38.44,0,0,0-4.26,5.62c-11.87,19.17-4.44,48.71,2.47,75.69h-.36c-.89,0-1.79,0-2.71-.12-10-.89-21.5-6.62-34.06-13-13-6.56-27.4-13.91-40.17-13.91a26.68,26.68,0,0,0-19.16,7.53c-12,11.49-19.38,37.9-21.14,68a91,91,0,0,0-10.83-17.9h0a85.37,85.37,0,0,0-49.08-30.78h0c-20.53-27-38.28-67.85-31.72-92.84,6.4-24.4,36.57-35.62,70.57-47.76l.08,0h0a4.36,4.36,0,0,0,1.39-.83c17.08-15.36,32.37-28.8,48.18-28.8Zm246.42,216.92c8.9.59,17.7,1.14,26.3,1.64h0a43.39,43.39,0,0,1-7.86.66h0a87.87,87.87,0,0,1-18.44-2.3Zm-325.3-35.1A77.86,77.86,0,0,1,1547,877.16a87.28,87.28,0,0,1,12.2,21.76c-.75-1.09-1.53-2.16-2.32-3.21-6.3-8.29-14.09-15.41-22.18-22.82-6.65-6.09-13.62-12.47-20.56-20.1Zm588.94-156.32c11.54,11.1,25.17,26.64,35.6,44.64,23.72,40.94,29.86,93.27,17.58,129.29a93.33,93.33,0,0,1-18.94,32.28c.9-3.24,1.89-6.68,2.93-10.32,8.46-29.38,20.28-70.16,11.74-108.56A148.4,148.4,0,0,0,2138.55,748c-10.49-20.18-24.3-38.15-35.43-51.52Zm-526.93-159a169.53,169.53,0,0,1,35.92,4.1h0a208.26,208.26,0,0,0,5.12,21.61c3.22,11.75,6.06,22.26,5.41,32.17a44.44,44.44,0,0,1-.64,5.15h0q-3.49,3.9-6.62,7.63c-17.41,20.76-25.86,36.79-34.18,52.56a4.17,4.17,0,0,0,0,3.81h0c-14.85,4.68-28.58,17.09-41.23,28.47h0c-32,11.4-67.42,23.84-75.15,53.26-7,26.85,9.54,66.17,28.44,93.52-1.13,0-2.25-.08-3.38-.08a65.74,65.74,0,0,0-32.56,8.48h0c-16.18,9.12-30.25,26-41.37,39.33h0c-6,7.2-10.94,13-14.95,16.66a161.64,161.64,0,0,0-12.61-12.93h0c-1.33-7.14-2.55-16.31-3.79-27h0c8.54-12.45,15-27.31,19-44.84,9.94-43.18,4.93-102.4.32-157.23h0l-.33-3.91h0c3.35-2,6.76-4,10.16-6,13.63-7.94,27.23-15.84,36.11-23.88,12.56-11.35,15.71-22.91,18.58-33.28h0c2.4-8.73,4.56-16.35,11.37-23.74,15.48-16.8,55.48-32.91,93.1-33.8h0l3.25,0ZM1118.48,276.25c3.11,0,6.23,0,9.23,0h0l8.46,0h6.33c5.59,29.61,11.06,66.41,10,99.06-.83,26.21-5.86,49.82-10.89,73.42-4.86,22.75-9.72,45.52-10.5,70.05a199.37,199.37,0,0,0,3.38,43.94c13.39,70.41,69.48,159.68,114.64,215.55,32.49,40.19,59.61,63.46,85.11,81.84h0a4.14,4.14,0,0,0,1.52,1.91c8.3,5.67,16.49,11.29,24.32,17h0c-23.73,20.38-56.78,29.8-95.67,31a42.26,42.26,0,0,0-7.84-.79,29,29,0,0,0-7.14.84l-2.89-.07h0c-40.5-1.25-85.57-10.37-126.33-28.34h0c5.84-7.31,10.23-14.54,12.35-21.66,5.14-17.35-3.61-32.82-12.64-49.26h0c-8.61-15.68-18.28-33.35-21.22-57-2-15.63-1-34,.09-54.59,1.3-24.75,2.77-52.47-.81-81.22-2.84-22.85-8.88-46.42-20.73-69.82h0a4.51,4.51,0,0,0,.73.07,4.13,4.13,0,0,0,3-6.94c-9.51-10.27-18.93-20.44-27.68-30.63-4.1-5.35-8.44-10.64-13-15.82-12.84-16.59-23.19-33.38-28.64-50.84-.91-2.89-1.67-5.81-2.34-8.76-3.21-14.33-3.83-29.36-4.51-46.21-.77-19-1.61-40-6.57-63.88h0c10.55-17.84,26.32-32.31,46.95-40,21.48-8,48.53-8.86,73.15-8.86Zm959.45,403.21c1.84,2.67,5.21,6.54,9,10.94,11.62,13.46,30.77,35.66,44.17,61.46h0a140.07,140.07,0,0,1,12.75,33.77c8,36-3,74.65-11.61,104.42h0c-2.48,8.64-4.8,16.66-6.27,23.56h0c-12.74,10.5-27.59,17.92-42.3,22.83-12,4-23.64,6.27-33.56,6.27-15,0-24.6-5-27.7-14.94h0a35,35,0,0,1-1.36-9.53h0c-.24-9.75,1.9-22.08,4.39-36.24,3-16.89,6.35-36,5.89-54.73-.54-21.62-6.2-42.43-14.84-61.31h0a3.72,3.72,0,0,0,.59-.78h0a5.5,5.5,0,0,0,3.26,1.66,5.65,5.65,0,0,0,.71,0,6.21,6.21,0,0,0,3.63-1.25,16.53,16.53,0,0,0,3.75-4.16h0c3.14-4.61,7.06-12.73,11.44-21.76,6.49-13.38,14.27-29.42,23-42.17h0a113,113,0,0,1,15.1-18.07ZM164.06,859.81c-2,2.52-4,5.11-6,7.73-12.17,16.37-22.9,34.64-32.54,51.05-5.86,10-11.28,19.2-16.42,27,9.26-36.28,28-61.62,48.64-80.34h0q3.12-2.82,6.28-5.44ZM1930.62,710.7a10.54,10.54,0,0,1,9.9,5.72,25.52,25.52,0,0,1,1.67,3.6c2.47,6.52,3.86,16,5.47,27.31,1.95,13.62,4.19,29.45,9.45,43.32,3.9,10.27,9.41,19.36,14.71,28.15h0c9.06,15,17.68,29.36,19.45,49.15,3,33.31-12.87,78-24.14,82.64a4.13,4.13,0,0,1-1.56.33c-1.78,0-4.36-1.34-7.94-5.35-4.13-4.64-8.39-11.44-13.11-19-5-8-10.44-16.76-16.39-23.43-11.39-12.77-24.38-17.66-37.73-19.85h0c.45-.58.9-1.18,1.33-1.78,5.78-8,10.14-18.18,14.09-27.3,3.69-8.53,7-16.06,10.76-21.34a36.53,36.53,0,0,1,8.65-8.53c2-1.44,4-2.59,5.81-3.67,1.37-.81,2.81-1.65,4-2.5h0a12.17,12.17,0,0,0,3.28-3.25,7.45,7.45,0,0,0,1-5.67h0a11.56,11.56,0,0,0-2-4.22c-.22-.31-.45-.62-.7-.93h0c-3.62-4.51-11.41-10.76-19.21-17.05h0c-9.84-7.94-20.12-16.26-25.54-23-4.5-5.62-5.58-10.11-6.81-15.32a54.56,54.56,0,0,0-3.34-10.59h0q3.45-2.55,6.74-5h0c5.2-3.9,10.12-7.59,15-10.86h0c10.48-7,20-11.5,27.14-11.5ZM131.89,421.38a33.07,33.07,0,0,1,11.76,2.51h0c9.81,9.35,20.76,17.34,32.12,22.49h0c24.75,23.95,48.18,61.12,52,93.45,4.56,38.92-20.15,69.93-45.44,101.32h0c-9,11.12-17.94,22.26-25.31,33.61-26.25,40.43-33.9,87.77-13.21,101.2h0c.55.35,1.11.68,1.69,1a27,27,0,0,0,12.5,2.63h0c8.8,0,19.59-2.72,31.08-5.58,15.55-3.87,33.12-8.23,51.69-8.23h0a107,107,0,0,1,11.55.6h0c28.28,3,58.47,18,89.69,37.72-14.85-6.41-31.53-11.4-48-12.69-2.91-.23-5.82-.35-8.71-.35h0c-35.37,0-68.94,16.66-97.59,43.33h0a161.81,161.81,0,0,0-35.36,24.79c-25,22.69-47.17,54.55-54.69,101.92h0c-5,5.46-9.17,7.93-12.56,7.93a7.27,7.27,0,0,1-2.84-.59c-19.48-8.11-40.87-87.25-46.45-142.08-2.66-26.12-1.51-45.23-.49-62.51.83-13.9,1.61-26.81.17-41-.4-3.88-1-7.86-1.73-12-2.6-14-7.6-29.65-12.39-44.69h0c-4.68-14.65-9.15-28.72-11.39-40.71-1.72-9.24-2-16.63-.38-21.89h0c2.53-8.37,10.1-12.57,21.86-18.71,13.8-7.19,31.37-16.3,43.31-39,7.74-14.69,13-35,18.17-54.59C98,471.43,103,452.42,110,439h0c5.46-10.38,11.57-16.27,18.88-17.42a18.85,18.85,0,0,1,3-.22Zm367.68,236c2.8,6.41,6.25,11.07,9.56,15.53h0c4.88,6.58,9.29,12.56,11.5,23.8,2.6,13.21,2.17,33.57,1.75,52.66-.34,15.35-.7,30.19.94,38.5h0c.1.55.22,1.09.35,1.61,1.47,5.73,4.69,9.27,10.21,9.27,3.43,0,7.49-1.49,11.23-2.81h0c6.56-2.31,14.6-5.12,24.83-5.12h0c1.42,0,2.88,0,4.39.17,10.13.8,22.34,4.45,35.77,8.49,14.5,4.37,30.28,9.14,45,10.3q3.28.25,6.51.26h.63c-11.5,18.22-19.45,38.41-15.65,65.07,1.87,13.2,6.63,27.91,11,41.58,4.13,12.8,7.93,24.61,9.29,34.18,1.5,10.57-.27,16-4.66,18.23-2.18,1.13-5.47,1.81-10,1.81-27.18,0-82.24-24.89-112.18-55.12-21.64-21.84-30-46.38-38.5-71.53-5-14.79-10.1-29.89-18.09-44.26h0c-10.81-19.42-26.79-37.34-40.74-53-11.45-12.85-21.31-24-26.6-33.48a38.53,38.53,0,0,1-2.69-5.8c-5.65-15.85,7.56-27.47,33-36.54h0c3.65-1.31,7.48-2.52,11.42-3.66h0c8.66-2.5,17.83-4.61,27.42-6.82,4.65-1.07,9.39-2.16,14.19-3.33ZM1814.72,703.8c17.72,0,42.45,16.4,53.36,28.76h0c1,1.1,1.82,2.16,2.57,3.18h0c-1.44,1-2.89,2-4.37,3h0a132.66,132.66,0,0,1-25.86,13.8c-18.7,7.25-41.77,10.18-49.94,11.2-1.27.16-2.39.3-3,.41l.26,0,.51,4.15-.77-4.11a5.19,5.19,0,0,0-.92.25c.35-.13.46-.2.43-.21h0c-.29,0-4.33,1.73-2.85,5.63v0a4.7,4.7,0,0,0,3.86,2.75c.13,0,.06,0-.28-.08h0l.31,0c.36,0,.91,0,1.43,0a100.69,100.69,0,0,1,10.66.55c11.35,1.29,18.46,4.75,17.72,11.2,0,.17-.05.36-.07.55h0c-2.49,15-33.63,46.52-41.78,54.63a80.08,80.08,0,0,1-11-22c-4-13.86,2.11-18.83,10.1-25.28h0a4.19,4.19,0,0,0-5.08-6.66c-16.11,11.61-34.4,24.49-37.79,45.39-3.29,20.28,7.63,48.08,26.43,58,5.85,3.08,12.3,4.31,18.14,5.45,6.32,1.23,12.08,2.39,17.4,5.19,5.91,3.11,11.58,8.44,16.14,19.08h0c10.33,24.13,14.33,73.39,14.44,98-5-13.08-13.26-33.18-26.47-48-12.26-13.71-28.6-22.64-43.52-30.83-14-7.69-26.63-14.67-35.2-24.26h0c-.93-1-1.8-2.1-2.63-3.19h0c-8.92-11.89-12.14-28.19-14.77-41.86-1.54-8-3-16.34-6.25-20.63h0c-.15-.2-.31-.39-.47-.58h0c17.8-6.58,31.15-24.7,41-37.79,2.81-3.75,5.35-7.12,7.74-10h0a98.59,98.59,0,0,1,14.38-14,70.05,70.05,0,0,0,9.77-9.23,50.33,50.33,0,0,0,7.44-12.41c2-4.57,3.86-10.21,5.8-16,2.27-6.8,4.65-13.92,7.51-20.51,4.88-11.22,10.62-19.53,18.12-22.34a21.18,21.18,0,0,1,7.5-1.24Zm15.2,325.39.07.08h0s0,0-.07-.08Zm-5.87.91a.53.53,0,0,1-.06.13h0a.35.35,0,0,1,0-.13ZM254.71,827.18a187.94,187.94,0,0,1,19.47,1c23.51,2.43,49.89,9.14,71.73,14.71,14.86,3.79,27.93,7.13,36.14,8,1.32.13,2.59.21,3.75.21a13.89,13.89,0,0,0,5.19-.83,6.67,6.67,0,0,0,3.09-2.5h0a6.44,6.44,0,0,0,.81-4.79,12.76,12.76,0,0,0-2-4.49h0l3.1,2.17a4.11,4.11,0,0,0,2.37.75,4.05,4.05,0,0,0,1.64-.34h0c13.38,28.87,32,56.17,56.83,78.15h0c21,18.66,46.37,33.38,68.89,46.49,18.8,10.94,35.43,20.64,46.71,30.64a55.79,55.79,0,0,1,10.13,11.38c15,23.58-6.39,54.52-46.57,80.14-1.34.86-2.69,1.7-4.07,2.54-20.47,12.47-44.17,22.65-69.47,27.16-9.44-5.09-21.19-10.34-34-16.07-42.83-19.17-99.08-44.43-133.39-89.45-11-14.48-19.86-31.09-27-48.35-16.93-41.08-24-85.28-28.2-111.91-1.74-10.92-3.09-19.67-4.64-23.42h0a157.71,157.71,0,0,1,19.49-1.18Zm1538.37,291.11,3.8,1.76h0ZM230.6,846.21c.34,2.09.7,4.39,1.1,6.89h0c4.22,26.57,11.37,71.68,28.72,113.77h0c7.31,17.74,16.47,35,28.05,50.22h0c35.79,47,94.12,73,136.58,92,8.36,3.75,16.06,7.2,22.87,10.47h0c-4.38.37-8.8.57-13.25.57a143.48,143.48,0,0,1-52.5-9.85C327.67,1089,272.55,1030,248.09,961.93c-16-44.46-18.66-91.91-17.5-115.72Zm1778,109.65a5,5,0,0,1,.32.85c1.38,4.78.73,15.46-.22,29.49-1.23,18.29-2.84,41.21,1.67,56.78h0c4.94,17,17,25.06,26,31.14,7.12,4.81,11,7.74,12,11.74,2.48,10.35-14.28,34.62-45.19,43.94-16.13,4.86-35.51,5.28-51.5,5.61-9.51.19-19.5.2-25.62,2.23-29.14-4.73-58.64-9.38-88.87-9.68h0c-20-2.79-34.57-5.65-39.62-8.67h0c1.52-1.59,5.06-3.83,10.63-7.21,8.62-5.21,20.62-12.39,27.12-22.3,6.32-9.68,7.15-21.54,8-31.87,1-13.27,2.06-24,10.18-31.17a37.08,37.08,0,0,1,8.8-5.48h0c9.4-4.39,22.26-7.45,36.79-10.88,16.72-4,35.4-8.35,51.67-16,16.57-7.76,30.48-18.77,40.94-27h0c9.47-7.49,14.62-11.24,17-11.51ZM1604.77,822.77c10.32,0,22.68,6.12,36.4,13,12.06,6.08,25.18,12.76,37.09,13.81l.18,0h0c-10.18,10-19.74,32.38-19.74,55.81a89.87,89.87,0,0,0,3.12,23.56c5.38,19.88,18.35,40.45,31.51,61.39,14.88,23.69,30.19,48.1,37.21,74.06.58,2.14,1.1,4.27,1.56,6.43,4.68,21.91,3.06,45.13-2.7,67.56-5.69-.14-10.24-.92-13.64-2.41-7.79-3.4-11-11.15-15.76-23.43h0c-4.23-11-9.4-24.5-21.08-37.12-7.54-8.16-17.73-15.86-28.42-24-13.07-9.9-27.16-20.6-39.64-34.09a131.19,131.19,0,0,1-25.26-38.58h0a143.3,143.3,0,0,1-5.73-16.6h0c-1.42-16.75-3.36-33.44-7.27-48.89h0c-1.38-37.51,6.05-73.14,18.81-85.36a18.33,18.33,0,0,1,13.36-5.22ZM2120,661.54q5.09,0,10.29.32c13,.81,26.36,3.09,38.78,5.22,10.27,1.76,20,3.43,28,3.93,1.54.09,3,.14,4.48.14h.09a155.63,155.63,0,0,1,25.32,20c36.39,35.07,74.57,99.94,81.51,133.43,2.38,11.42,1,18.73-1.85,24.32h0c-2.62,5.17-6.62,9.22-11.35,14-4.93,4.93-10.56,10.52-14.53,18.35-11.51,22.69-8.5,63.5-5.22,104.53h0l.21,2.65c3.31,41.28,6.48,82.64-8.67,111.57-15.27,29.14-49.87,46.48-89.5,47.57h0c-1.34,0-2.69,0-4.05,0a185,185,0,0,1-27.7-2.23h0q-5.43-.81-10.94-1.9h0l-1.65-.33h0a103.76,103.76,0,0,0-20-11.82h0c-3.35-6.18-5.82-12.09-6.7-18.23h0c-3-20.76,12.36-46.16,38.28-63.33h0c9.94-6.59,21.34-11.88,32.22-16.92,16.28-7.56,33.63-15.25,38.06-27.16,7.46-20.06-21.06-45.39-43.31-55a132.21,132.21,0,0,0-17.93-5.93h0c-15.25-4.21-22.63-6.36-20.76-22.43.15-1.32.37-2.72.64-4.2h0a103.05,103.05,0,0,0,30.64-45c13.18-38.66,6.47-93.5-18.26-136.19-18.41-31.77-47.37-57.57-59.54-64.67h0a84.36,84.36,0,0,1,16.85-9.78h0a149.69,149.69,0,0,1,16.73-.92ZM1114.64,888.26c39.67,17.87,83.29,27.4,123,29.67h0c-5.64,7.12-8.26,17.75-11.08,28.34s-6,22.42-11.67,34.46h0c-6.12,12.92-15.21,26.2-24.84,40.26-10.13,14.78-20.81,30.36-28.5,46.6a131.84,131.84,0,0,0-7.19,18.47c-3.76,12.61-5.1,25.52-6.36,37.58-1.2,11.42-2.32,22-5.17,31.53-3.49,11.69-9.53,21.65-21.49,29.14-16.32,10.2-44,16.09-72.63,16.09s-57.13-5.94-74.75-18.26h0c-20.67-14.46-27.29-38.29-32.2-56.35-2.39-8.78-4.75-18.47-9.89-22.07a8.35,8.35,0,0,0-.74-.47c26.22-38.19,52.32-76.32,71.62-107,7.55-9.11,15.49-18,23.92-26.55,14.4-14.65,30.25-28.46,45.31-41.58,13.36-11.63,26.14-22.76,36.52-33.32,2.13-2.17,4.19-4.34,6.14-6.51ZM866.1,907.11c14.94,0,27.84,9.1,42.31,19.5,12.87,9.26,27,19.52,43.73,21.56a56,56,0,0,0,6.86.4c15.33,0,31.79-5.6,44.58-9.92,9.37-3.16,16.17-5.39,20.19-5.39h0a4.42,4.42,0,0,1,1.53.19h0a2.89,2.89,0,0,1,.1.87,10.14,10.14,0,0,1-.12,1.38c-1.4,9.06-12.54,29.19-29.17,55.59h0c-29.3,35.41-52.77,74.25-75.93,112.89h0c-7.9,4.58-17.61,16-27.62,27.38-16,18.2-35.65,40.51-57.39,54.66-21.55,14-45.24,20-64.38,20-16.95,0-29.07-4.67-33.86-11.18-4.32-5.89-3.66-14.3-2.31-27h0c1.74-16.39,4.07-37.48-10.35-59.12-13.37-20.08-41.14-40.4-63.69-57h0c-17-12.48-30.5-22.48-35-29.18a9,9,0,0,1-1-1.87c-.27-.74-1.1-2.38,6.2-5,5.88-2.15,14.6-3.94,25.54-6.17,15.82-3.23,35.63-7.26,55.61-14.57,5.12-1.87,10.25-4,15.34-6.31,24.52-11.31,47.72-28.53,68.72-44.1,18.14-13.45,34.47-25.53,49-32.25h0a58.58,58.58,0,0,1,15.58-5,36.39,36.39,0,0,1,5.45-.41Zm623.69-59a63.53,63.53,0,0,1,10.11.82h0c9.89,12.53,20.07,21.83,29.19,30.18,8.21,7.52,15.41,14.12,21.17,21.7,1.17,1.56,2.29,3.15,3.34,4.8,6.41,10.06,10.42,22.31,13.3,35.82h0c.67,4.33,1.46,8.62,2.39,12.83h0c1.4,8.7,2.53,17.75,3.66,26.95a4.19,4.19,0,0,0,4.15,3.68l.42,0a4.47,4.47,0,0,0,1.39-.39h0a140.3,140.3,0,0,0,25.82,38.66c13,14.12,27.73,25.24,40.73,35.08,10.87,8.24,20.4,15.47,27.33,23,10.47,11.33,15.17,23.46,19.41,34.46,4.39,11.36,8.63,23,20.21,28.1a42.49,42.49,0,0,0,14.7,3h0a227.76,227.76,0,0,1-38.49,73.34c-.35.44-.7.89-1.06,1.33h0a17.93,17.93,0,0,0-2.38,2.07,27.42,27.42,0,0,0-4.18,5.66h0c-19.73,21.94-41.44,34.59-65.45,34.59-11,0-22.66-2.64-35.09-8.46h0c-34.94-16.37-75-57.34-106.67-89.78-8-8.26-15.55-15.94-22.21-22.43A416,416,0,0,0,1419.7,1115c-4-3.19-6.76-5.46-8.81-7.46-2.78-2.7-3.65-4.41-3.88-6.44-.51-4.29,1.56-10.77,5.29-21.92a346.85,346.85,0,0,0,10.2-35.19c7-31.06,11.39-76.31-3-110.52a104.78,104.78,0,0,0-13.32-22.82h0c5-4.43,10.48-11,16.11-17.78,11.39-13.61,24.47-29.17,39-37.4h0a57.37,57.37,0,0,1,28.45-7.4ZM1834,1136.31h2.55c23.41,3.3,53.14,6.3,82.84,9.26h0c.1,4.52,4.11,10,7.2,14.44,7,10.2,15.88,23.23,14.44,39.18-2.53,27.92-36.37,66.09-60.5,73.85a30.38,30.38,0,0,1-9.4,1.54,33,33,0,0,1-13.36-3c-5.86-2.55-11.55-6.39-17.83-10.66h0c-6.59-4.47-13.77-9.36-21.86-12.88a87.45,87.45,0,0,0-12.57-4.31c-11.57-3.06-24.07-4.31-35.79-5.49-11.2-1.12-21.62-2.18-30.59-4.55-8.34-2.21-15.51-5.59-22.05-8.67-5.69-2.69-11.46-5.48-16.89-6.35h0a236.36,236.36,0,0,0,35.61-71.88h0c1.64-.07,3.3-.17,5-.3,9.8-.74,20.89-2.46,32.4-4.23,13-2,26.65-4.12,40.07-5.14,6.94-.53,13.85-.77,20.73-.77Zm-7.74-553.6c17.72,0,33.14,1.5,44.22,7.5h0c14.22,7.7,22.16,23.23,31.15,41.17,4.48,8.94,9.2,18.37,15.07,27,9.53,14,22,25.6,34.63,37.43,10.5,9.83,21.2,19.86,31.07,31.79h0c21.88,26.43,39.56,62.08,40.5,99.91.44,17.71-2.77,36-5.76,53.07-2.43,13.86-4.79,27.13-4.52,37.9a43.62,43.62,0,0,0,1.74,11.82c4.74,15.23,19.33,20.82,35.7,20.82h0c11.08,0,23.64-2.49,36.22-6.7a146,146,0,0,0,38-19h0c-.64,19.86,13.15,23.57,27.16,27.44a127.12,127.12,0,0,1,16.83,5.55c23.42,10.13,43.28,32.31,38.79,44.4-2.91,7.83-15.63,14.08-33.74,22.47-10.77,5-22.75,10.55-33.31,17.54-27.14,18-45.61,46.1-41.95,71.51a52.54,52.54,0,0,0,3.58,12.63c-17.74-5.84-36.21-7.61-54.17-9.37a2.82,2.82,0,0,0-.41,0,4.19,4.19,0,0,0-1.37,8.15c22.28,7.71,44.79,15.52,66.91,21.29h0l1.34,2.14c7.25,11.57,14.52,23.24,17.71,37.19,6.36,27.82-3.46,64.69-34.31,82.11h0c-18.77,10.61-45.59,14.31-72.38,17.95-17.72,2.41-35.42,4.8-49.77,9.39-24.75,7.9-39.35,22.21-51.84,34.42-5.81,5.67-11,10.74-16.62,14.78a61.13,61.13,0,0,1-35.69,11.77,57.57,57.57,0,0,1-23.39-5c-8.85-3.93-17.25-10.24-26.88-17.53-11.3-8.54-24-18.19-40.26-25.37h0c-.36-.17-.72-.32-1.09-.48-11.53-5-24.73-8.68-37.31-12.2h0c-12.19-3.42-23.76-6.67-33.34-10.81-6.73-2.91-12.19-6.14-16.07-9.95-11.94-11.7-10.6-30.74-5-41.28h0c1.85-2.09,3.69-4.24,5.49-6.46h0a7.25,7.25,0,0,1,3.73-.93h0c4,0,9,2.26,16.57,5.83,6.5,3.06,14.32,6.75,23.48,9.18,9.74,2.58,20.88,3.69,31.9,4.8,11.86,1.19,23.67,2.39,34.49,5.25a80.28,80.28,0,0,1,11.36,3.89c7.26,3.16,13.81,7.59,20.5,12.13,6.14,4.17,12.48,8.49,19.19,11.42a41.48,41.48,0,0,0,16.71,3.74,38.89,38.89,0,0,0,12-1.94c27-8.68,63.42-49.48,66.28-81.07h0c1.76-19.38-9.06-34.82-15.88-44.7-3.24-4.69-4.91-7.35-5.49-8.83h.22a4.19,4.19,0,0,0,3.3-1.61h0c4-.6,10.71-.86,20.24-1h0c15.75-.32,36.33-.7,53.76-6h0c31.56-9.52,55.13-36.37,50.91-53.92-1.88-7.83-9.28-12.56-15.43-16.72-9-6.11-18.6-12.69-22.61-26.53s-2.63-35-1.36-53.87c.88-13.06,1.82-25.8-.1-32.39h0a12.41,12.41,0,0,0-1.15-2.81,9.46,9.46,0,0,0-1-1.41,7.63,7.63,0,0,0-5.17-2.67l-.75,0h0c-6,0-14.33,6.9-22.47,13.33-10.53,8.32-23.73,18.73-39.3,26-15.35,7.18-33.15,11.4-50,15.39-14.23,3.36-28,6.61-38.41,11.46h0a45.44,45.44,0,0,0-10.78,6.78c-11.11,9.77-12,24.35-13,36.82-.84,10.81-1.67,20.37-6.62,27.93-5.24,8-15.37,14.24-24.44,19.73h0c-5.36,3.25-11.45,6.8-13.84,10.46a8.21,8.21,0,0,0-.65,1.17c-1.89,4.08.21,7.54,3.37,9.61h0c.13.09.26.18.4.26h0a37.46,37.46,0,0,0,8.64,3.38h0c-10.15,1.13-20.22,2.69-29.76,4.16-11.6,1.8-22.35,3.45-31.75,4.17h0l-2.08.14c5.57-22.82,7-46.5,2.2-69.11-.49-2.31-1-4.59-1.66-6.87-7.41-27.38-23.46-52.86-38.2-76.33-13.38-21.27-25.54-40.71-30.52-59.12a81.25,81.25,0,0,1-2.83-21.37c0-32.13,17.4-52.67,21.81-52.94h0a2.48,2.48,0,0,1,.32.37h0c1.75,2.32,3,8,4.73,17.19,2.56,13.28,6,31.6,16.31,45.3,1,1.3,2,2.54,3.07,3.75,9.71,10.87,23.73,18.51,37.42,26h0c15.15,8.32,30.16,16.6,41.3,29.06,13.21,14.77,21.22,35.71,26.17,48.71,1.79,4.72,3.47,9.27,5,11.27a5.25,5.25,0,0,0,4.15,2.3h0c3.47,0,4.54-3.36,4.64-3.64h0a13.45,13.45,0,0,0,.49-2c2.26-13.16-.82-83.77-14.42-115.51h0c-5.24-12.21-12.16-19.09-19.93-23.18-6.58-3.47-13.56-4.81-19.7-6s-11.27-2.23-15.84-4.64c-15-7.91-24.9-31.77-22.07-49.22,1.58-9.74,7.18-17.49,14.9-24.66h0a34.68,34.68,0,0,0,1.55,12.22c4.63,15.82,22.43,44.73,39.23,44.73a14.08,14.08,0,0,0,1.45-.07,14.85,14.85,0,0,0,4-1c8-3.16,14.22-13.15,19-20.49s8.16-12.24,10.8-13.28h0a2.43,2.43,0,0,1,.9-.17h0c2.23,0,5.2,2.33,10.26,6.91,4.35,3.94,10.69,10,17.93,10a12.75,12.75,0,0,0,1.38-.07c15.07-1.59,27.95-29,27.66-45.64-.2-12.12-7-21.82-20.8-21.82-7.18,0-15.86,2.67-25.93,8.27a217.47,217.47,0,0,0-25.36,17.22c4.47-6.68,7.78-13.06,8.63-18.2.05-.32.1-.65.14-1,1-9-4.42-14.11-11-17h0a175.92,175.92,0,0,0,28.19-7.91,141.65,141.65,0,0,0,27.48-14.65c1.29-.86,2.56-1.72,3.81-2.6h0a53,53,0,0,1,2.16,7.51c1.29,5.45,2.7,11.48,8.43,18.63,6.13,7.65,17.28,16.61,26.83,24.31,8.21,6.62,15,12.16,17.92,15.77.16.2.3.38.42.55h0a5.87,5.87,0,0,1,.5.8h0a6.54,6.54,0,0,1-.83.67c-.83.59-1.92,1.23-3.38,2.1-1.83,1.07-4.08,2.39-6.44,4.07A44.9,44.9,0,0,0,1909.76,828c-4.43,6.17-8.08,14.65-11.64,22.89-4,9.33-8,18.57-13.21,25.74a42.11,42.11,0,0,1-4.59,5.46c-3.47-.3-7-.5-10.41-.7l-1-.06-1-.06c-21-1.2-43.23-2.76-65.48-4.32h-.3a4.19,4.19,0,0,0-1.32,8.17c19.54,6.54,40.05,13.47,57.08,13.47h0c8.09,0,15.74-1.55,22.26-5.68a34,34,0,0,0,3-2.12h0c14.61,1.59,27.49,5.34,38.74,18h0c5.37,6,10.44,14.12,15.53,22.29h0c4.58,7.35,9.25,14.85,14,20.14h0c3.8,4.26,8.54,8.15,14.19,8.15a12.35,12.35,0,0,0,4.76-1c17.22-7.12,32.25-58,29.29-91.13-2-22-11.62-37.83-20.62-52.73-5.37-8.88-10.47-17.33-14.06-26.78h0c-4.86-12.85-7-27.72-9-41.54-1.56-10.92-3-21.49-5.92-29.09a34.88,34.88,0,0,0-2.27-4.85,18.89,18.89,0,0,0-17.14-9.88h0c-9.84,0-21.28,5.9-31.79,12.92-5.13,3.42-10.24,7.26-15.39,11.13-2,1.48-4,3-6,4.46-.9-1.23-1.93-2.51-3.09-3.82-11.59-13.13-38.42-31.59-59.64-31.59a29.79,29.79,0,0,0-10.46,1.77c-11,4.14-17.92,15.49-22.85,26.85-3,7-5.53,14.45-7.78,21.19-2,5.9-3.73,11.15-5.54,15.31a41.53,41.53,0,0,1-6.19,10.39h0a62.72,62.72,0,0,1-8.68,8.14,107.14,107.14,0,0,0-15.47,15c-2.55,3.06-5.22,6.62-8,10.31-11,14.69-23.45,30.81-38.91,35.57-.08-22.52.09-43.89,5.91-60.14a113.61,113.61,0,0,1,8.37-17.21,85.6,85.6,0,0,0,6.08-12.22l0-.09h0l2.78-1.62c9.78-5.68,20.57-11.89,28.4-20.56a61.14,61.14,0,0,0,6.71-9.08c5.63-9.22,9.22-19.82,12.57-29.7,3.31-9.72,6.38-18.7,10.89-26.09h0c4.73-7.74,11.14-13.9,17.76-20.23,8.18-7.83,17-16.13,20.71-27.61h0c3.14-9.68,2.64-21.31-1.31-32.42h0c5.61-.17,11.14-.31,16.54-.31Zm-1437-161.83c8.82,16.37,22.13,29.05,36.76,35,8.65,3.52,17.59,4.62,26.59,4.62a234.78,234.78,0,0,0,24.65-1.77,244.15,244.15,0,0,1,26.22-1.86h0A99.68,99.68,0,0,1,518.71,458c13.29,2.05,27,7.38,41.42,13.05,14.79,5.79,30.37,11.91,46.28,14.36a92.26,92.26,0,0,0,14,1.12c.89,0,1.78,0,2.68-.05,17.31-.57,34.74-6.86,51-12.69h0c1.8-.64,3.59-1.29,5.37-1.91l.89.34c5.69,2.12,12.63,3.44,19.78,4.81,9,1.73,18.79,3.61,28.51,7.24h0c25.7,9.58,51.7,31.53,78.46,54.28C792.35,549.21,772,551.88,751,551.88c-9.26,0-18.43-.51-27.06-1-7-.39-13.71-.77-19.67-.81h-1.08a160.74,160.74,0,0,0-31.12,3.19h0c-6.5,1.17-11.92,2.13-18,2.13A65.08,65.08,0,0,1,635,552.3c-6.7-2-14.61-5.15-23.36-8.62-10-4-21.06-8.39-32-11.66-10-3-20.22-5.14-29.75-5.14h0c-7.83,0-15.37,1.44-22.05,5.18-30.31,17-37.3,78.55-32.92,108.25a78,78,0,0,0,1.94,9.3c-4.46,1.07-8.88,2.09-13.27,3.1h0c-9.55,2.2-18.94,4.36-27.86,6.94-4.08,1.17-8.07,2.44-11.9,3.81h0c-24.25,8.65-46.63,23-38,47.1A46,46,0,0,0,409,717.6h0c5.84,10.51,16.46,22.39,27.66,35h0c14.06,15.79,29.4,33,39.68,51.5,7.56,13.61,12.44,28,17.48,42.89,8.48,25.06,17.32,51.34,40.46,74.71,31,31.32,88.09,57.57,118,57.57,5.15,0,9.93-.77,13.75-2.75,9.67-5,10.57-16,9-26.72-1.49-10.43-5.55-23-9.6-35.55-4.48-13.86-9-27.85-10.73-40.21-3.78-26.54,5.1-45.89,18-64.85a49.72,49.72,0,0,0,6-1.48c32.71-10.29,50.49-56.14,67.23-98.38a4.13,4.13,0,0,0-7.17-4h0c-20,27.33-39.92,54.65-59.09,80.2l-.9,1.2-.9,1.2c-3.36,4.48-6.72,9-9.93,13.55a57.4,57.4,0,0,1-6.37.33c-1.91,0-3.87-.08-5.86-.24-13.66-1.07-28.55-5.54-43.26-10-13.14-4-26.3-7.94-37.5-8.82-1.72-.13-3.38-.19-5-.19h0c-11.77,0-21,3.26-27.58,5.59-4.35,1.53-6.82,2.34-8.49,2.34h-.3c-.5,0-1.18-.25-1.9-3.06h0c-.09-.34-.18-.73-.26-1.15-1.41-7.19-1.13-20.84-.78-36.71.41-18.71.91-40.14-1.91-54.45h0c-2.58-13.13-7.94-20.34-13-27.12a73.19,73.19,0,0,1-8-12.65h0q4.66-1.21,9.39-2.56a212.88,212.88,0,0,0,43.44-17.37c15.6-8.52,30.85-20,42.87-29.92-5.4,11.64-7.88,25.73,5.18,34.42.38.25.77.5,1.17.74,9.61,5.71,26.78,8,44.44,8.69-21.3,4.13-43.5,9.39-60,15.67-33.58,12.76-46.79,31.21-39.89,49.34a36.72,36.72,0,0,0,10.54,14.39c13.41,11.72,36.79,19.52,54.76,19.52,8.59,0,17-1.78,22.26-6.86,7.81-7.5,7-20.73,6.7-30.44-.37-10.61-.28-17.52,3-20.65a5.65,5.65,0,0,1,1.31-1h0c1.74-.94,4.61-1.47,8.79-1.47h0a156.71,156.71,0,0,1,18.51,1.69c7.35.94,15.32,2,22.62,2,8.45,0,17.15-1.35,23-7,17.56-17,1.83-66.76-12.3-88.09-5.51-8.3-11.32-13.4-17.32-16.33a120.78,120.78,0,0,1,19.22-1.72h0c11.36,0,22,2.19,31.65,8,23.67,14.19,42.31,49.91,36.54,76.19-1.76,8-5.82,15.38-10.35,23.53-4.65,8.34-9.76,17.47-12.09,28.13-2.74,12.48-1.64,26.72,7.2,44.34,23.28,46.42,101.86,118.82,119,128.9a15.38,15.38,0,0,0,3.12,1.46,7.27,7.27,0,0,0,1.87.29h0a4.83,4.83,0,0,0,4.89-5,7.45,7.45,0,0,0-.09-1.11c-.53-3.33-4.17-9.75-8.14-16.89-10.21-18.42-26.87-48.56-31.16-78.82-3.61-25.56,1.57-51.47,6.75-77.13h0c4.7-23.34,9.45-46.68,6.41-68.15-.33-2.36-.76-4.71-1.3-7h0c-5.69-24.77-23.19-46.33-36.16-62.38-8.7-10.77-14.62-18.28-15.75-23.21-.34-1.48-.08-2.1.18-2.45,1-1.45,5.27-3.43,14-3.43h0c23.77,0,67.25,14.75,94.53,54.09,16.78,24.21,27.57,57.82,39.19,94.16,12.86,40.23,26.67,83.53,51,118.61,1.91,2.76,3.89,5.48,6,8.13,21.83,28.28,51.43,50.05,84.17,65.94h0q-2,2.16-4.2,4.38c-10.1,10.28-22.62,21.19-36,32.88-14.12,12.31-29.2,25.44-43.14,39.37,5.65-10.62,9.22-19,10-24.27a17.16,17.16,0,0,0,.21-2.64,10.21,10.21,0,0,0-1.07-4.8h0a8.06,8.06,0,0,0-2.76-3,11.18,11.18,0,0,0-6-1.53h0c-5.74,0-14.19,2.92-22.84,5.84-13.1,4.42-28.22,9.48-41.94,9.48a48.83,48.83,0,0,1-5.86-.34c-14.28-1.74-26.65-10.53-39.91-20.06h0c-13.93-10-29-21-47.13-21h0a45.23,45.23,0,0,0-6.7.5h0A66.2,66.2,0,0,0,841.6,905h0c-15.52,7.16-32.61,19.86-50.51,33.12-21.14,15.68-43.65,32.35-67.26,43.24h0c-4.87,2.25-9.79,4.25-14.72,6.06-19.32,7.07-38.56,11-54.42,14.23-10.67,2.18-20.12,4.1-26.73,6.51h0c-6.64,2.43-14.29,7-11.12,15.64a17.62,17.62,0,0,0,1.89,3.62c5.5,8.26,20.72,19.35,36.94,31.26,23,16.92,49.35,36.31,61.72,54.89,12.61,18.93,10.75,37.23,9,53.67-1.23,11.52-2.75,23.71,3.87,32.72,7.2,9.8,22.84,14.55,40.51,14.55,20.73,0,46-6.48,68.88-21.38S882.92,1155,898.75,1137c9.74-11.08,17-19.1,22-23.31a4.22,4.22,0,0,0,.93.11,4.13,4.13,0,0,0,3.41-1.79c.37-.55.75-1.09,1.12-1.63l.44-.06h.06a.61.61,0,0,1,.41.15h0c2,1.41,3.74,6.77,6.66,17.48,4.81,17.7,12,44.54,35.44,61,19.63,13.74,50,19.75,79.48,19.76h0c29.33,0,58.82-6,77-17.34,14-8.78,21.09-20.6,25-33.77h0c3.11-10.41,4.29-21.78,5.47-33,1.27-12.17,2.56-24.32,6.07-36.07a121.77,121.77,0,0,1,6.74-17.31h0c7.36-15.54,17.64-30.57,27.85-45.46h0c9.52-13.9,19-27.76,25.48-41.39,6.06-12.81,9.38-25.32,12.19-35.86,4.68-17.58,7.7-27.25,16-30h0c1.81,0,3.63.05,5.43.05q4,0,7.85-.1h0c18.72,3.89,43.17,21.75,45.14,48.32.64,8.61-1,18.41-4.28,29.19-4.62,15.35-12.25,32.1-20.21,49.55-8.24,18.07-16.81,36.86-22.26,55-.18.57-.34,1.14-.51,1.71-7.45,25.56-8.73,49.56-9.89,71.05-1,18.24-1.87,34.44-6.07,48.85h0c-9.22,31.62-34.62,55.19-67.33,63.41-10.37,2.61-21.53,3.7-33.75,4.87-26.39,2.54-56.81,5.44-89.73,26.12h0c-19.17,12-39.11,30.09-59.3,48.34-30.35,27.42-61.24,55.25-92.41,66.84h0a104.69,104.69,0,0,1-36.66,6.61h0c-38.74,0-74.6-21.16-94.75-47.93h0c-13.32-17.71-19.84-37.93-26.15-57.61h0c-.12-.38-.25-.76-.37-1.14q.75-4.73,1.82-9.5h0c13.86-29.66,26.07-61.42,38.21-93a4.13,4.13,0,0,0-2.19-5.26,4,4,0,0,0-1.66-.35,4.12,4.12,0,0,0-3.69,2.28c-15,29.86-30.26,60.3-37.7,90.15-4.63-13-10.16-25.19-18.82-34.93-16.65-18.71-44.14-27.7-74.18-27.7h0a170.26,170.26,0,0,0-47.56,7c-18.26,5.35-36.28,13.74-52.65,21.37h0c-21.7,10.09-39.8,18.42-53.14,18.42a22.56,22.56,0,0,1-7.66-1.2c-20.56-7.39-26-54.46-14.92-91.22,2.78-9.24,6.57-17.48,10.14-25.25h0c9.74-21.15,18.54-40-8.39-58.49h0c23.1-5.34,44.59-15,63.29-26.38h0c1.42-.86,2.82-1.73,4.22-2.62,39-24.86,68.87-60.54,49.09-91.55a63.62,63.62,0,0,0-11.62-13.11c-12-10.68-29.49-20.82-48-31.6h0c-22.66-13.18-47.26-27.51-67.57-45.53-43.46-38.56-67.68-94.48-77-146.06h0c-4.2-23.29-5.36-45.67-6.48-67.46-1.35-26.3-2.65-51.87-9.45-76.34h0c-4.2-15.07-10.46-29.63-16.46-43.61-11.94-27.83-22.56-52.93-17.39-77.78,3.44-16.56,14-33.48,28-51,7.88-9.89,16.71-19.82,25.76-29.89ZM906.67,1439.09ZM224.41,830.15c-4.45,16.56-4,79.12,15.91,134.58,25.13,70,81.78,130.92,138.85,153.19a151.61,151.61,0,0,0,55.5,10.42,164.7,164.7,0,0,0,26.3-2.14h0c2.3,1.3,4.41,2.57,6.32,3.84h0c22.12,14.66,16.51,27.12,6.5,48.86-3.55,7.71-7.58,16.45-10.55,26.32-10.72,35.56-8.42,91.15,20,101.37a30.82,30.82,0,0,0,10.45,1.69c15.62,0,35.73-9.47,56.62-19.19h0c16.48-7.67,33.93-15.78,51.49-20.92a162,162,0,0,1,45.23-6.7h0c28.67,0,53.49,8.61,68,24.94,9.49,10.66,14.91,24.87,20.24,41.11h0c-14.33,29.47-30.41,56.26-49.91,78.12-33.75,37.84-77.59,60.66-120.12,60.66a114.11,114.11,0,0,1-24.83-2.7c-49.18-10.91-94.55-55.67-139-99.76l-2.85-2.83h0c-44.63-44.2-88.52-87-125.36-95.7a78.75,78.75,0,0,0-18.21-2h0c-5.74,0-11.31.47-16.58.92s-10,.85-14.82.85c-14.5,0-28.63-3.67-44.46-23.84-32.4-41.29-70.38-149.57-75.47-226.43a237.61,237.61,0,0,1,1.65-50.08h0c1.58-1.84,3.13-3.81,4.64-5.84,7.15-9.63,14.68-22.45,22.71-36.11h0c9.68-16.48,20.2-34.35,32.05-50.3h0a236.62,236.62,0,0,1,27.63-31.27h0a130.18,130.18,0,0,1,32.06-11.05Zm519.15,522.36c5.1,14.42,11.51,29.21,21.66,42.69,21.53,28.61,59.73,51.23,101.35,51.23a112.89,112.89,0,0,0,39.54-7.13l.56-.21a686.43,686.43,0,0,0-64.8,41.33c-30.76,22.38-46,39-50.85,56.76-.25-1.12-.5-2.25-.75-3.4a3.94,3.94,0,0,1-.18,1.41,4.06,4.06,0,0,0,0-2.53c-11.13-33.19-22.23-66.28-31.95-99.36-8-27.1-14.84-53.69-14.55-80.79Zm450.84,8.93c103,0,207.43,36,312.65,77.46-58.5-13.29-117.73-24.08-179-24.08a462.78,462.78,0,0,0-127.57,17.34l-2.77.79c-73,21.2-149.61,62.82-214.7,98.18-48.91,26.58-91,49.42-120.78,58.06-9.43,2.74-17.47,4-24.35,4-19.83,0-31.39-10.62-39.37-30.67-4.94-27,6-44.75,48.21-75.45,62-45.1,189.39-115.74,318.61-124.64q14.52-1,29.08-1ZM344.18,1628.28a233,233,0,0,1,69.05,11.27c29.25,9.51,56.12,25.37,82.58,43.13A326.37,326.37,0,0,0,454.14,1671c-24.18-5-47.45-6.69-70.19-6.69-21.49,0-42.57,1.48-63.49,3-4.17-6.06-8-11.79-10.51-17-4.31-9-3.75-14,3.27-17.37,6-2.87,16.92-4.62,31-4.62Zm1048.63,77.52q-3.48,3.46-7,6.86c-45.63,44.07-93.31,77-142,96.15-47.85,18.82-96.93,24.47-146.61,29.92,0-.35,0-.69.07-1a477.16,477.16,0,0,0,76-16.64c82-24.58,158.85-66.89,216.86-113.08l2.72-2.18Zm56.62-49.35c-62.46,86.49-123.66,162.88-181.11,203.52-46.32,32.77-90.19,42.23-133.27,42.23-26.93,0-53.54-3.7-80.39-7.8,14.3-13.11,28.17-26.25,35.3-36.7a44.76,44.76,0,0,0,5.45-10.51c50.44-5.52,101.5-11.11,151.39-30.73s98.55-53.28,144.73-97.89c19.66-19,38.9-40,57.89-62.12Zm-813.6,249.91c-12.76,22.14-25.78,43.1-41.06,59.42-18.65,19.91-40.79,33-67.41,41.16-20.37,6.26-43.34,9.63-67.16,12.34.27-5.24.59-10.38.93-15.46a53.09,53.09,0,0,0,3.61-8.76c4-12.77,3.56-28.89,2.77-44.6h0c13.74,3.64,28.06,7,44.08,7a116.37,116.37,0,0,0,32.4-4.65c27-7.72,59.17-26.31,91.83-46.44ZM452.09,2017c-.06,1.07-.11,2.14-.17,3.21l-3,.32q1.6-1.73,3.15-3.53Zm1605-571.79c52.18,0,98.23,18.25,134.54,55.79,30.31,31.34,53.92,76.16,71.63,129.08h0c-5.82,122-39.14,242.1-103,347.36C2015.94,2215.13,1716,2377,1545.09,2377c-38.8,0-70.38-8.35-92-25.48-.86-.69-1.73-1.4-2.56-2.12-112.85-96.81,51.55-460.88,239.46-679.9,126.15-147,259.75-224.33,367.05-224.33ZM1009.84,2261.07A145.93,145.93,0,0,1,1035.3,2281c34.46,34.36,32.69,77.14,19.68,100.73-8.4,15.22-21.69,22.74-42.36,24.77a57.52,57.52,0,0,0,11.86-8.56c31.21-29.56,22.68-94.82-9.18-131.13q-2.62-3-5.46-5.74Zm-83.71-26.76a117.51,117.51,0,0,1,18.24,1.5c27.81,8.15,49.36,18.87,64.76,36.42,30.38,34.63,36.32,94.52,9.69,119.74-7.52,7.13-17.76,11.74-29.76,14.78q-6-.35-12.64-1c-10.69-1.08-22.45-2.78-34.69-4.55-22.58-3.27-46.78-6.78-67.7-6.78-12.42,0-24,1.23-33.55,4.65a57.19,57.19,0,0,0-13.61,7.08,177.29,177.29,0,0,0,8.44-23.18c3.31-11.29,6.14-24.09,9-37.19,9.37-42.5,19.44-86.73,47.46-103.29,9.45-5.59,21.23-8.16,34.33-8.16ZM874,2402.62c20.21,0,43.78,3.4,66.53,6.69,5.33.77,10.61,1.54,15.78,2.25-11.87.88-24.4,1.21-37,1.5-13.79.34-27.54.66-40.17,1.82-28.38,2.6-51.31,9.43-66.72,16.14.52-.55,1-1.1,1.54-1.66,8.94-9.62,16.93-18.14,29.29-22.57,8.28-3,18.78-4.17,30.78-4.17ZM717.68,2199.73c39.28,0,84.57,8.06,125.14,15.3l6.52,1.16,9.75,1.73,9.29,1.64c14.86,2.64,28.72,5.18,41.6,7.86a66.31,66.31,0,0,0-22.36,8c-31.81,18.8-42.28,67.67-51.31,108.6-2.91,13.17-5.67,25.68-8.89,36.64-13.29,45.27-34.17,63.67-68.14,70.42a128.73,128.73,0,0,1-12.76,1.87c-30.68-.5-72.59-13.87-101.14-50.49-31.69-50.95-44.92-144-6.5-180.51,17.1-16.27,45.2-22.19,78.8-22.19Zm156,275.26Zm8.29.46a2,2,0,0,1-.17.88,1,1,0,0,1,0-.19,2.21,2.21,0,0,1,.15-.69Zm-7.9.88a1.54,1.54,0,0,1,.22.51,1.07,1.07,0,0,1,.06.17,1.79,1.79,0,0,1-.28-.68Zm11.42,75c5.77,35.63,14,78.91,25.37,116.89-9.78,0-19,.39-27.55,1.25,2.83-18,5.29-38.29,3.66-85.34-.35-10.08-.89-21.39-1.49-32.8Zm36.59,125.26c32.21.89,70.88,5.44,112.12,11.91,82.88,13,175.58,33.71,269.38,55.2-68.57,2.1-136.39,5.07-196.88,14.49-7.92,1.24-15.78,2.59-23.38,3.9-22.55,3.9-43.39,7.48-62.5,7.48a128.73,128.73,0,0,1-13-.62,25.79,25.79,0,0,0-6.42-.85c-22.75-3.76-42.33-15.37-58.23-42.18-7.92-13.34-14.92-30.39-21.08-49.33Zm-11.09-.15h2.41c6.55,20.53,14.07,39.15,22.68,53.66,12.8,21.57,28,34.17,45.1,40.94a94.81,94.81,0,0,0-21.28,6.47c-13.18,3.38-27.7,6.33-42.21,6.33a81.13,81.13,0,0,1-28.58-4.76c-10.67-4-20.87-10.87-29.54-19.32-19-18.56-28.65-42-23.67-58a52.08,52.08,0,0,1,5.9-9.8c10.73-10.61,34.82-15.53,69.19-15.53Zm389.5,75.58c-97.24,17.62-189,33.42-234.86,33.6h-.77c-22.74,0-33.64-3.89-40.78-7.86,19-.37,39.49-3.91,60.64-7.56,7.63-1.32,15.39-2.66,23.24-3.88,59-9.2,125.13-12.21,192.52-14.3Zm-927-1077.88a406.15,406.15,0,0,1,53.35,3.06c33.42,4.46,64.63,14.66,96.14,25.21A382.52,382.52,0,0,1,592,1743c42.18,31.23,77.41,71.12,67.2,182.52-3.74,40.85-13.59,91.21-23.94,144.12-11.27,57.66-23.13,118.25-28.07,172.07-3,32.24-3.44,62.25.23,87.87,4.71,32.9,16.23,58.37,31.32,77.75l.25.4c26.13,41.29,63.34,53.92,96,53.92,4,0,8-.19,11.84-.54h1.49a104.69,104.69,0,0,0,11.47-.61,71.71,71.71,0,0,0,30.72-10.28,6.35,6.35,0,0,0,1.64,2.09l.08.06a21.42,21.42,0,0,0,4.31,2.46,42.61,42.61,0,0,1,9.91,6.12c4,3.4,8.4,8.65,12,17.26,11.6,27.55,15,87.76,15,131,0,42.78-3.24,67.58-6.52,92.52a4,4,0,0,0,0,1.14c-4.05,20.08,8.95,45.33,26.83,62.76,9.33,9.1,20.48,16.69,32.4,21.14a89.32,89.32,0,0,0,31.46,5.29,140.23,140.23,0,0,0,21.57-1.8,55.51,55.51,0,0,0-9.46,10.56c-13.77,20.41-10.07,49.11,1.86,75.27-16.3-19.23-34.24-40.53-54.21-64.44C779,2694,631.41,2513.52,552.29,2381.85c-78.92-131.34-89.55-214-92.43-279.32-1.21-27.61-1-52.15-.06-74.93,24.44-2.75,48.53-6.22,70-12.8,27.83-8.54,51.25-22.33,71-43.4,19.06-20.35,34.57-47.41,49.71-74.13l5.23-3.27a4.11,4.11,0,0,0-2.17-7.6,4,4,0,0,0-1.75.39l-5,2.34a5.79,5.79,0,0,0-.57.25l-.31.17c-38.58,18.11-76.21,35.43-105.56,42.22a138.23,138.23,0,0,1-31.53,3.72c-14.41,0-27-2.34-39.88-4.91-4.66-28.52-9.85-57.88-28.78-85.42-10.34-15-24.72-29.44-39-43.75-12.65-12.69-25.28-25.35-35.52-38.68-20.66-26.86-31.86-56.67-42.72-87.23,17-.7,33.86-1.34,50.49-1.34ZM992.71,2778.21c9.92,0,12,2.95,12,4.49.12,4.93-7.33,14.53-19,28.91-15.6,19.16-36.62,44.69-38,69.46a47.92,47.92,0,0,0,.24,8.13c-17.86-28.63-25.54-62.72-11.35-83.74,5.84-8.66,15.55-15.47,26-20.12,4.66-1.2,9.09-2.44,13.22-3.58,4.59-1.29,8.74-2.44,12.43-3.34,1.56-.14,3.07-.21,4.51-.21Zm335.58-22.87c-27.12,39.79-54.9,78.82-97.72,112.87-45.86,36.47-108.88,67.16-158.26,75.43a161.38,161.38,0,0,1-26.54,2.32c-34.28,0-60.87-12.73-81.84-35.62-5.68-10-8.55-19.32-8-28.81,1.21-21.52,19.92-44.77,36.17-64.73,10.29-12.64,21.09-25.45,20.88-34.3a11.53,11.53,0,0,0-.23-2.09h0l1.33.86c8.43,5.51,19.59,12.59,50.76,12.59h.81c50.93-.19,156.32-19.15,262.64-38.52ZM944,.29c-26.84,0-60.17,11.93-90.61,22.77-23,8.18-44.26,15.74-61,18h0a82.36,82.36,0,0,1-10.92.77h0c-16.25,0-27.91-5.33-40.08-10.93-11.68-5.38-23.94-11.08-40.36-11.08h0c-1.05,0-2.1,0-3.18.07-38.41,1.68-98.73,34.38-137.76,78.46a262.81,262.81,0,0,0-34.5,50.36,99.69,99.69,0,0,0-20.09-15.93c-21.54-12.72-50.32-17.12-76.34-17.12h0c-19.74,0-38.27,2.53-51.45,6.15a80.28,80.28,0,0,0-17.88,7.06c-6.86,3.79-11.94,8.2-17.29,12.81-6.84,5.91-14.45,12.49-27.69,19.81-11.51,6.37-27.28,13.31-44.45,20.86-29,12.76-62.09,27.26-82.82,43.17a104.07,104.07,0,0,0-20.91,21.21c-7.58,10.35-12.12,20.68-16.19,29.91h0c-3.6,8.16-6.76,15.29-11.28,21.47h0c-3.71,5.08-8.42,9.6-13.42,14.38-12.63,12.09-27.07,25.67-21.07,50.71,3.49,14.54,14.14,33.36,28.63,50-.5,0-1,0-1.5,0a27.4,27.4,0,0,0-4.26.32c-11.26,1.77-19.08,10.64-24.91,21.74C95.13,449.6,89.9,469.66,84.81,489.1,79.59,509,74.52,528.27,67.32,542,56.67,562.2,41.21,570.32,27.5,577.47,16.61,583.15,5.27,588.8,1.55,601.11c-2.18,7.22-1.61,16.24.17,25.79,2.35,12.61,7,27.21,11.63,41.71,4.84,15.18,9.66,30.31,12.15,43.7.73,3.89,1.26,7.64,1.63,11.3,1.37,13.46.64,25.73-.19,39.71-1,17.35-2.21,37,.52,63.83C32.78,879.52,53.86,965.57,78.94,976a15.66,15.66,0,0,0,6,1.23h0a19.56,19.56,0,0,0,11-3.78h0a253.56,253.56,0,0,0-.5,41.88c5.16,78.05,43.52,188.07,77.21,231h0c17.5,22.3,34.1,27,51,27,5.21,0,10.43-.45,15.52-.88,5.32-.45,10.53-.89,15.86-.89h0a70.48,70.48,0,0,1,16.33,1.76c34,8,76,48.49,121.44,93.53l2.86,2.83c43.88,43.49,91.05,90.42,143.06,102h0a122.7,122.7,0,0,0,26.62,2.9h0c45.45,0,91.39-24.28,126.29-63.41,16.83-18.87,31.14-41.25,43.93-65.66-1.69,31,6.05,60.88,14.65,90.16,9.71,33,20.78,66,31.82,99h0a0,0,0,0,1,0,0,189.75,189.75,0,0,0,8.76,30.74c2.41,12.07,7.48,25.71,14.15,42.31C828,1665.1,871.15,1762,937,1807.29c34.71,23.86,75.46,33.22,118,33.22a323.4,323.4,0,0,0,33.88-1.84c-.41,4.2-1.9,8.75-5.76,14.4-7.51,11-23.63,25.75-40.39,41.06a4.1,4.1,0,0,0,2.14,7.09c29.63,4.57,59.63,9.21,90.13,9.21,44.49,0,90.1-9.85,138-43.74,80.29-56.79,167-181.34,253.16-304.83a4.11,4.11,0,0,0-6.62-4.88l-.19.25a3.78,3.78,0,0,0-.55.51c-39.33,44.43-78.43,88.58-125.89,127.69s-103.33,73.23-154.87,95.5c-51.34,22.18-98.47,32.66-146,43.17l-.43.1a4.11,4.11,0,0,0-3.2,4.48c.07.59.13,1.17.2,1.75a317.38,317.38,0,0,1-33.66,1.86c-41.41,0-80.39-9.09-113.4-31.78-63.49-43.64-105.86-138.12-129.1-195.9-2-5-3.86-9.66-5.53-14.08,7.82,7,17.8,10.88,30.85,10.88,7.86,0,16.69-1.44,26.64-4.32,30.84-9,73.89-32.37,122.42-58.74,65.26-35.45,141-76.6,213.06-97.5l2.72-.79A455,455,0,0,1,1328,1423c79.13,0,155,18.26,231.33,36.67a4,4,0,0,0,1,.12,4.11,4.11,0,0,0,1.52-7.93c-122.36-49.12-245.69-98.68-367.46-98.68q-14.84,0-29.65,1c-80.83,5.56-160.7,34.8-224.78,67.08,21.08-14.17,41.61-32.76,61.2-50.46,20.36-18.4,39.74-35.89,58.17-47.47,31.12-19.55,59.78-22.35,86.12-24.89,12.09-1.16,23.89-2.29,35-5.08,35.38-8.9,63.16-34.51,73.24-69.11,4.51-15.51,5.42-32.71,6.39-50.72,1.16-21.56,2.42-44.65,9.57-69.18h0c.16-.54.32-1.09.49-1.64h0c5.26-17.46,13.57-35.72,21.87-53.91h0c7.89-17.32,15.78-34.61,20.6-50.59h0c3.39-11.26,5.36-22.16,4.61-32.19-1.7-22.83-17.14-39.8-33.84-49h0c33.1-3.48,61.91-13.75,83.5-32.89h0c4.81,3.71,9.44,7.51,13.82,11.43h0c2.17,9.67,5.07,16.87,9.35,19.44a9.11,9.11,0,0,0,4.7,1.3,11.47,11.47,0,0,0,4.52-1h0a97.15,97.15,0,0,1,12.53,21.35c13.32,31.72,9.44,74.8,2.53,105.44a335.57,335.57,0,0,1-10,34.37c-3.41,10.2-6.44,18.92-5.67,25.56.55,4.68,2.87,8.07,6.36,11.46,2.39,2.34,5.57,4.89,9.4,8a406.71,406.71,0,0,1,31.24,27.54c6.57,6.4,14,14,22.07,22.28,31.23,32,72.47,74.35,109.1,91.52,13.4,6.27,26.28,9.25,38.65,9.25,22.27,0,42.21-9.62,60-25.66h0c-1.35,11.84,1.4,25.2,11.36,35h0c4.92,4.82,11.42,8.54,18.6,11.65,10.21,4.41,22.37,7.81,34.41,11.19,12.71,3.55,25.33,7.1,36.25,11.82l1,.45c15.2,6.74,27.24,15.82,38.6,24.4,9.45,7.13,18.63,14.1,28.54,18.5h0a65.75,65.75,0,0,0,26.78,5.69,69.45,69.45,0,0,0,40.57-13.35c6.23-4.47,11.89-10,17.59-15.59,12.46-12.17,25.83-25.18,48.54-32.43,13.51-4.32,30.4-6.63,48.35-9.06h0c26.26-3.56,54.9-7.39,75.37-19h0c34.8-19.64,45.35-60.7,38.36-91.27-3-13.24-9.34-24.51-15.57-34.62h0c1.77.4,3.53.79,5.29,1.15h0l1.54,1.23c10.05,8.23,19.5,19.35,28.36,32.55h0A812.14,812.14,0,0,1,2208.13,1289c11.91,34,22.19,69.72,32.51,105.62a4.32,4.32,0,0,0,.47,1.05h0a843.33,843.33,0,0,1,22.9,212c-17.18-45.44-39.14-84.15-66.47-112.41-38-39.25-86.19-58.3-140.45-58.3-110.88,0-246.56,79.47-373.29,227.2-185.53,216.24-358.79,588.35-238.58,691.5.92.78,1.86,1.56,2.81,2.31,23.6,18.72,57.28,27.27,97.08,27.27,174.23,0,476.64-163.82,622.14-403.55,60.85-100.27,94.28-213.8,102.9-329.62h0c41.15,140.39,44.65,328.8,23.91,476-29.82,211.64-109.51,335.57-230.26,502.86-120.87,167.46-282.1,377.3-425.08,496.71-104.19,87-198.26,125.63-277.67,125.63a219.17,219.17,0,0,1-82.28-15.48c-55.8-22.42-101.4-68.55-141.63-117.54-14.14-17.22-27.55-34.71-40.51-51.61-12-15.64-23.59-30.75-34.93-44.56-18.25-22.22-35.78-41-51.11-57.39-6.45-6.9-12.45-13.34-17.94-19.41l-8-9.23c17.41,10.49,37.65,16.13,61.13,16.13a169.29,169.29,0,0,0,27.9-2.43c51-8.55,115.33-40,162-77.1s76-80.29,104.92-122.8a4.11,4.11,0,0,0,.05-4.55,4.06,4.06,0,0,0-.82-.92,4.13,4.13,0,0,0-3.17-3.49l-1.7-.39c-103.74-23.83-207.59-47.66-299.52-62.1-42.54-6.68-82.68-11.37-116-12.07-12.71-41.71-21.65-90.86-27.62-129.36-2.5-16.1-4.47-30.25-6-41.09-.93-6.71-1.7-12.19-2.3-16.07a59.64,59.64,0,0,0-1.47-7.56c0,.13.08.19.09.19s-1-3.47-4.26-3.47h-.15c-3.76.13-4.29,4.39-4.19,4.39a.88.88,0,0,0,.08-.35,71.08,71.08,0,0,0,0,9c.29,8.42,1.06,22.07,1.94,37.49,1.16,20.36,2.49,43.88,3.15,62.94,1.67,48.32-1,67.84-3.9,85.92-11.06,1.88-22.77,4.08-30.78,8.88a31.81,31.81,0,0,0-6.6,5.26,601,601,0,0,0,4.26-75.25c0-42.86-3.28-104.82-15.63-134.16-4.12-9.78-9.27-16.09-14.29-20.35a51,51,0,0,0-11.67-7.26l-.34-.17c7.87-6.19,36.48-20.24,80.12-24.24,12.31-1.13,25.76-1.45,39.62-1.77,23.62-.57,48.92-1.07,70.25-6.27q5.26.27,10.16.27c29.57,0,50.2-7.72,62.26-29.59,14.66-26.59,16.15-73.41-21.07-110.53-22.73-22.65-60-41.73-94.85-47.38-22.27-6.5-47.88-11.24-76.44-16.32l-9.3-1.65-9.74-1.72-6.52-1.17c-40.38-7.2-86.43-15.42-126.58-15.42-34,0-64.95,5.89-84.47,24.45a75.42,75.42,0,0,0-17.88,27.44c0-.3,0-.6.08-.9,4.89-53.32,16.65-113.48,28-171.24,10.32-52.77,20.27-103.59,24.06-145,10.49-114.39-26.12-157-70.5-189.88A389.61,389.61,0,0,0,530.73,1697a4.46,4.46,0,0,0-.76-.68c-36.05-25.31-72.7-51.08-114.2-64.58a241.17,241.17,0,0,0-71.59-11.67c-14.33,0-26.77,1.73-34.5,5.41-13.49,6.44-12,18.07-7.15,28.34a134.94,134.94,0,0,0,10.58,17.31,4.16,4.16,0,0,0,.2,1.88c11.43,32.23,23.07,65.16,45.82,94.74,10.63,13.82,23.64,26.86,36.22,39.48,14.41,14.44,28.21,28.3,38,42.6,18.37,26.72,23.08,55.31,27.9,84.89a4.16,4.16,0,0,0,.31,1,3.71,3.71,0,0,0-1.08.52,4.1,4.1,0,0,0-1.78,3c-2.08,20.29-4.17,40.62-5.69,62.25-4.45,7.93-10.95,14.43-17.93,21.37a4.11,4.11,0,0,0,2.9,7,3,3,0,0,0,.42,0l13.09-1.36h0c-.93,22.62-1.09,47,.12,74.38,2.93,66.54,13.88,150.54,93.59,283.2,79.51,132.32,227.57,313.24,325.87,430.88,40.82,48.85,73.13,86.85,100.44,118.51,4.77,5.9,10.11,12,15.86,18.31,30.52,35.12,54.89,62.41,79.2,89.63l.65.73.08.09c7.41,9.41,15,19.27,22.75,29.41,13,16.88,26.44,34.47,40.68,51.82,40.39,49.18,87.1,96.71,144.93,120a227.28,227.28,0,0,0,85.34,16.07c82.06,0,177.94-39.86,282.94-127.54,143.88-120.16,305.66-330.83,426.48-498.21,120.94-167.56,201.62-292.83,231.73-506.53,21.73-154.24,17.25-355.85-30.66-500.24h0c5.25-114.32-13.41-230.16-53.48-337h0c-4.67-13.57-9.58-26.9-14.83-39.86-10.91-26.91-23.43-52.54-37.68-73.42q-6.83-12.17-14.05-24.07h0a185.53,185.53,0,0,0,22,1.38c1.43,0,2.86,0,4.28-.06,41.61-1.14,79.59-19.41,96.69-52,16.52-31.54,12.84-75.72,9.6-116.13l-.21-2.64h0v0c-3.38-42.23-5.82-80,4.35-100.07,3.28-6.48,7.95-11.19,13-16.21h0c4.58-4.58,9.59-9.54,12.91-16.09,3.85-7.59,5.26-16.9,2.58-29.81-7.37-35.56-46.65-101.85-83.9-137.76h0a173.3,173.3,0,0,0-19.17-16.06h0a11.84,11.84,0,0,0,6.76-7.44c5.72-18.1-29.62-66-53.42-90.63-12.43-12.85-22.91-20.67-32.09-27.53-7.41-5.53-13.79-10.31-19.9-16.61-1.65-1.72-3.29-3.55-4.91-5.53h0c-5.62-6.86-11.14-15.62-16.73-24.53h0c-5.33-8.47-10.75-17.1-16.17-23.72-4.09-5-8.57-9.36-13.47-11.47a18.8,18.8,0,0,0-7.49-1.53h0c-5.66,0-11.32,2.39-16.57,4.55-7.16,2.93-14.68,6-24.07,6h0a45.41,45.41,0,0,1-9.85-1.1c-9.74-2.15-21.43-7.69-33.72-13.54-11.89-5.67-24.39-11.65-35.07-14a42,42,0,0,0-8.87-1.07h0c-5.09,0-10,1.27-13.92,4.71-.24.2-.47.41-.69.62-2.46-13.46-7.23-25.74-12.76-33.25h0c-7.32-9.95-16.23-12.29-25-12.29h0a104.17,104.17,0,0,0-10.78.76,95.86,95.86,0,0,1-10.08.73c-.89,0-1.76,0-2.61-.08-4.83-.34-9.61-1.72-15.28-3.38-6.37-1.88-13.64-4-22.24-4.62-1.49-.1-3-.16-4.61-.16h0a71.49,71.49,0,0,0-15.34,1.71c-17,3.73-38.55,14.3-57.25,23.47-11.11,5.45-21.24,10.4-29.26,13.47h0a96.72,96.72,0,0,1-21.44,5.46h0a66.93,66.93,0,0,0-14.09,3.34,54.62,54.62,0,0,0-11.46,6.16c-17.13,11.77-44.5,41.05-49.38,70a65.69,65.69,0,0,0-.68,15.29,175.39,175.39,0,0,0-34.87-3.7h0c-1.18,0-2.36,0-3.55,0-39,.93-81.54,17.48-99.06,36.5-8.33,9-10.89,18.5-13.29,27.2-2.81,10.17-5.46,19.66-16.12,29.29-8.09,7.32-20.79,14.75-34.71,22.87l-6.71,3.91c-2.83-34.42-5-66.5-2.94-91.66,3.17-37.88,16.16-60.1,24.89-75.05,4.14-7.08,8.09-13.63,8.57-19.47h0a13.51,13.51,0,0,0-3.61-10.54c-7.08-7.92-26.42-14.16-45.86-20.6-22.1-7.31-46.06-15.29-61-26.17-16.29-11.83-22.11-27.3-27.15-40.85-3.32-8.93-6.65-18.31-13.64-23.38-.35-.26-.71-.5-1.08-.73h0c-6.53-4.11-15.6-4.37-24.35-4.74-13.32-.56-28.57-1.25-43.92-10.94a70.47,70.47,0,0,1-11.07-8.69c-10.88-10.36-21.56-26.34-31-42.5h0c6.63-2,11.29-5.34,12.23-11.15h0c2.48-15.42-27.39-46-57.85-77.87-19.93-20.88-41.56-43.53-59-65.48-13.55-17-24.63-33.64-34.8-48.89-8.43-12.65-16.28-24.44-24.3-34.52C992.25,17.36,976.58,4,954.63,1A78,78,0,0,0,944,.29Zm0,0"/></svg>