<svg id="Layer_1" data-name="Layer 1" xmlns="http://www.w3.org/2000/svg" viewBox="0 0 2133 3322"><defs><style>.cls-1{fill:none;stroke:#000;stroke-miterlimit:10;stroke-width:15px;}</style></defs><path class="cls-1" d="M1355.88,3322.08C1364.77,3259.17,1213,2977,1154,2867s-30-79-3-282,136-360,278-390,277,70,274,112-71,14-124-36-183-93-181-52,52,222,164,196,227,35,227,35,34-115-125-243-357,32-298-33,201-127,246-162,102-55,188-50,301,5,82-59-276,119-290,94,152-154,273-154,267.5,155.07,267.5,155.07S2067,1986,1988,2028s-155,122-256,94-126-113-159-97-167,74-184,76-26-21-29-95,90-170,90-229-23,39-102,103,34,395-32,136,210-395,179-330,19,176-9,253-22,112-170,255-224,429-224,429c-140-455,14-1095,73-1272s82-174,291-268,87-166,223-208,255-185,182-517-518-92-561-191,74-199,104-157,177,90,311,140,192-13,208,63,38,74,38,195,83,192,97,257,21,63-48,131-390,99-269,50,107-343,15-126-552-32-500-29,45,13,125,69,236-51,286-79,46-182,46-182,61,56,69,105-1,130-34,153-65,63-130,119-142,63-236,18-82-48-139-129-106-80-115-52,30,40,40,73,105,99,142,114,53,9,17-66-172-168-161-168,111,17,195,34,143-17,36-62-29-116,26-122-8,38,10,95,96,30,106-74-194-74-227,4,55,174,158,153,136-125,107-204-238-61-71-114,174,77,182,128-64,365-381,181,53-479,129-479,103,72,194,85,90,150,55,106-168-175-319-1-71,282-71,282c-146-45-130-279-89-320s1-8,32-68,82-137-55-96-108,188-88,299,161,182,129,153-64-76-82-202,82-160,124-239-18-153-16-133-6,15-129,122-70,287-70,287c-121-112-176,16-236-37s41-317,137-317,417-153,350-90-14,181-1,160,41-12,106-19,184,51,233,92,163,113,184,300-69,249-107,268,0,18,0,18c85,6,206,21,148,29s-120-7-187,9,44,115-152,196-418-61-381-39,47-16,72,31,90,36,195,26,205-121,207-147-127,7-127,7c-473,10-396-464-425.57-461.46S996,660,981,779s-1,160,85.43,248.21S1188,1109,1294,1141s245-18,365-36,250-165,282-227,50-18,89,42,20,163-36,180-168,55-259,140-161,106-300,70-197-117-292-113-250-88-342-168S613,891,688,798s87-382,198-357,132,31,127,71-72,95-70,331,170,261,199,296,41,57,19.86,94S1150,1275,1082,1443s-93,609-108,596-68-174-135-238-85-98-59-137,7-73,20-138-99-211-114-159,17,123,59,156,38,84,15,125-21,27-64-28-73-176-50-249-6-138-6-138l58,26c85,51,127,180,125,253s-39,241-99,177-215-117-261-149-188-7-283-24,18-53,148-64,208,113,205,102-62-156-250-162S.36,1541.82.36,1541.82C106.73,1512.64,158,1628,280,1678s239-76,274-74,47,29,111,77,107,96-12,76-258,123-223,150,321-200,295-104-115,219-232,183-168,27-168,27-39-79,74-204,301-84,378-45c17.42,8.82,17.61,25.37,34,49,56,80.82,120.56,226.93,143,278,29,66,27,266,71,530s229.33,701.08,229.33,701.08Z"/></svg>