<svg id="Layer_1" data-name="Layer 1" xmlns="http://www.w3.org/2000/svg" viewBox="0 0 2133 3590"><defs><style>.cls-1{fill:none;stroke:#000;stroke-miterlimit:10;stroke-width:15px;}</style></defs><path class="cls-1" d="M-.5,3322.5l1254.83-.42S1069,2885,1025,2621s-42-464-71-530c-22.44-51.07-87-197.18-143-278-16.39-23.63-16.58-40.18-34-49-77-39-265-80-378,45s-74,204-74,204,51-63,168-27,206-87,232-183-260,131-295,104,104-170,223-150,76-28,12-76-76-75-111-77-152,124-274,74S106.73,1512.64.36,1541.82C.36,1541.82,95,1386,283,1392s247,151,250,162-75-113-205-102-243,47-148,64,237-8,283,24,201,85,261,149,97-104,99-177-40-202-125-253l-58-26s29,65,6,138,7,194,50,249,41,69,64,28,27-92-15-125-74-104-59-156,127,94,114,159,6,99-20,138-8,73,59,137,120,225,135,238,40-428,108-596,58.73-173,79.86-210,9.14-59-19.86-94-197-60-199-296,65-291,70-331-16-46-127-71S763,705,688,798s21,151,113,231,247,172,342,168,153,77,292,113,209,15,300-70,203-123,259-140,75-120,36-180-57-104-89-42-162,209-282,227-259,68-365,36-141.13-25.58-227.57-113.79S966,898,981,779s55.87-269.93,85.43-272.46S1019,978,1492,968c0,0,129-33,127-7s-102,137-207,147-170,21-195-26-35-9-72-31,185,120,381,39,85-180,152-196,129-1,187-9-63-23-148-29c0,0-38,1,0-18s128-81,107-268-135-259-184-300-168-99-233-92-93-2-106,19-66-97,1-160-254,90-350,90S755,391,815,444s115-75,236,37c0,0-53-180,70-287S1252,92,1250,72s58,54,16,133-142,113-124,239,50,173,82,202-109-42-129-153-49-258,88-299,86,36,55,96,9,27-32,68-57,275,89,320c0,0-80-108,71-282s284-43,319,1,36-93-55-106-118-85-194-85S990,501,1307,685s389-130,381-181-15-181-182-128,42,35,71,114-4,183-107,204-191-75-158-153,237-108,227-4-88,131-106,74,45-101-10-95-133,77-26,122,48,79-36,62-184-34-195-34,125,93,161,168,20,81-17,66-132-81-142-114-49-45-40-73,58-29,115,52,45,84,139,129,171,38,236-18,97-96,130-119,42-104,34-153-69-105-69-105,4,154-46,182-206,135-286,79-73-66-125-69,408,246,500,29,106,77-15,126,200,18,269-50,62-66,48-131-97-136-97-257-22-119-38-195-74-13-208-63S1434,52,1404,10s-147,58-104,157,488-141,561,191-46,475-182,517-14,114-223,208-232,91-291,268-213,817-73,1272c0,0,76-286,224-429s142-178,170-255-22-188,9-253-245,71-179,330-47-72,32-136,102-162,102-103-93,155-90,229,12,97,29,95,151-60,184-76,58,69,159,97,177-52,256-94,144.5-29.93,144.5-29.93S1986,1843,1865,1843s-287,129-273,154,71-158,290-94,4,64-82,59-143,15-188,50-187,97-246,162,139-95,298,33,125,243,125,243-115-61-227-35-162-155-164-196,128,2,181,52,121,78,124,36-132-142-274-112-251,187-278,390-56,172,3,282,210.77,392.17,201.88,455.08l777.12.42Z"/></svg>