<svg id="Layer_1" data-name="Layer 1" xmlns="http://www.w3.org/2000/svg" viewBox="0 0 2328.42 1627.14"><defs><style>.cls-1{fill:none;stroke:#000;stroke-miterlimit:2.61;stroke-width:3.84px;}</style></defs><path class="cls-1" d="M1152.18,1441.57c-6.09,10.89-21.39,35.09-30.54,46.23C966.8,1676.27,698.45,1529.66,777.75,1438c22.63-26.14,68.2-71.27,83.46-92.08,25-34.11,53-78.45,74.44-111.65,23.42-36.2,50.38-85.46,67.76-118.72,15.88-30.38,38.95-80.4,35.88-97.33-9.44-52-92-185-92-185l.15.25c-26.91-42.49-53-123-117.57-112.83-15.73,2.49-34.34,10.25-50.42,17.74-66.36,30.93-34.78-.34-7.09-9.82,45.49-15.57,113.8,21.84,130.15,72.68,16.42,51,39.24,152.75,41.82,182.8,2.8,32.47-1.82,76.71-11.42,71.11-12.33-7.19,2-22.61,8.22-50.35,5.32-24,27.73-91.14,34.05-115.55,9.22-35.69,54.39-17.61,71.34-1.6,12.29,11.61,20.76,27.39,29.47,25.45,2.4-.53,80.22-37,86.3-41.61,3.09-2.31,21.58-9,27.23-13.61s22.54-18.77,2.13-9.11c-13.42,6.36-38,21.94-39.89,22.72-3.22,1.29-22.22,8.62-11.56-1,5.4-4.88,43.67-23.63,52.91-28.51,6.69-3.53,49.93-27.81,15.16-19.78-10,2.31-59.6,29.54-61.14,30.31-15.07,7.54-28.89,10.93-7.15-4.52,15.07-10.71,62.34-30.17,63.92-30.92,1.83-.87,22.86-10,29.54-13.36s10.53-6.42,7.45-11.82-20,2.31-31.6,5.91-46.1,19.39-46.1,19.39l-31.08,14.68c-16.26,7.69-21.13-.13-4.93-6.54,7.59-3,16.74-5.44,16.74-5.44s25.43-11.44,30.57-13.5,37.28-15.51,20.29-19.89c-8-2.06-21.58,2.05-35.7,4.36-25.39,4.16-43.2,10.64-66.28,20-14.69,6-32.25,5.31-8-5.91,3.34-1.54,15.93-8,22.09-14.13,10.83-10.82,15.09-35.3-10.66-27-12.34,4-27.57,12.69-32.75,15.42-17.29,9.16-52.89,28.27-65.76,43.42-11.22,13.2-17.74,46.24.38,51.75,12.65,3.85,34.46,9.45,53.24,26.1,6.87,6.09,12.39,12.91,13,20.41,1.73,20.76-13.48,51.6-20.48,70.14-32.82,87-109.92,278.33-170.22,243.61C784.44,1183.35,739.35,987.84,713,891.63c-25.85-94.39-62-157.38,88.82-214.27C853,658,933.86,651,986.67,623.34c52.16-27.33,103.24-87.43,176.05-93.39,54.71-4.48,101.59,22.51,125.09,73.43,14.16,30.68,13.24,89.46-.65,121.71-37.41,86.83-155.77,5.44-192.46-46.69-11.53-16.38-23.83-32.62-39.83-26.69-31.73,11.75-51,93.8,21.79,33.87,45.85-37.76-15.53-55-48.8-55-34.11,0-41.17-13.09-16.94-34.3,27.16-23.78,65.95-47.33,102.86-60.84l-.44.17c24.46-8.8,33.7-25.09,23.59-54.36-9.77-28.3-11.92-45,8.34-80.12,5.5-9.53,20.17-16.13,61.6-36.66s49.5-63.8,54.26-68.2c25.17-23.23,47.17-49.77-1.73-48-45.24,1.65-126.27,19.17-60.83,18.92,32-.12,85.4-3.48,106.93-2.47,46.1,2.18,158.83-12.77,39.6-27.49-29.7-3.67-226.59,17.6-235.76,17.6s-16.5,9.89,3.67,15.76,205.32-.37,227.32,1.1c13.8.92,159-9.58,73.33-38.13-22-7.33-67.09-13.93-91.29-14.3s-238,28.23-247.49,29-4.77,22,17.6,29.34,225.13-1.1,254.46,1.83c31.92,3.19,172.27,4.54,83.6-49.5-23.47-14.3-57.94-23.1-78.84-23.1s-203.49,19.07-217.79,20.9-46.93,8.07-60.49,12.47-26.4,29.33-14.67,39.59,74.06,6.24,100.83,9.9,73-3.66,117.69-.73,151.8,1.1,168.3-1.1,37.4-7.7,32.63-28.23-29-33.73-38.13-39.6-46.57-22.37-71.87-25.3-155.46,18.33-160.59,18.33-115.13,8.8-132,13.94-41.06,28.6-41.06,46.93,16.86,13.93,53.53,18.33,156.93,6.6,177.46,6.6,45.47,0,81.4,7.33,109.26-8.06,129.06-17.6,27.86-27.86,13.2-48.4-92.4-57.56-117.7-57.19-265.82,28.23-279.39,29-26.77,1.1-40.33,6.6c-27.28,11.06-46.21,50.41-11.74,76.63,16.87,12.83,91.67,13.93,101.57,14.85s132.54,1.47,147.21,2.57,29.33,1.83,59.39,5.5,92.4-4.59,110-9.54,48.4-22.37,54.63-33.37,1.84-16.86-7.7-38.86-75.9-49.86-82.86-53.53-29.33-12.1-59.4-13.94-295.16,37-299.92,37.41c-64.3,4.94-61.86,67.48-38.14,86.89,12.11,9.9,27.5,12.83,51.34,19.43s99.73,9.53,124.29,10.63,108.9,2.2,125.76,3.67,85.07,3.67,114.4.73,49.87-18.33,66-25.66c31.1-14.14,37.48-46,13.18-69.46-27.9-27-93.46-59.26-117.31-66.2-37.77-11-170.86-1.47-185.53.73s-174.52,35-186.62,39.6c-30.38,11.5-34.06,35.05-27.86,61.24,8.33,35.11,16.7,36.52,51.4,47.2C1092,326.81,1099,325.65,1140.7,328c32.63,1.84,49.13,4.41,84.69,4.41s130.53,5.13,154.73,8.43,34.83,2.93,52.43-.74,45.47-11.36,69.3-21.63c49.3-21.24,71.31-73.88,17.81-105.08-28.86-16.83-86.16-44.37-98.47-49.65-15.4-6.6-56.1-17.23-88-17.6s-146.66,16.14-206.06,27.14-93.86,19.79-115.86,33-19.07,39.6-17.6,68.2S1023,313.33,1056,324.33s69.66,9.53,99.73,12.46,55.73,1.47,93.86,2.2c57.57,1.11,143.64,18.12,196.19,8.41,62.93-11.62,176.72-57.43,96-125.36-32.15-27.06-91.13-57.08-120-71.48-37.83-18.84-77.46-22.72-121.08-18.7-77.21,7.11-247,32.84-284.64,45.73C979.7,190,963.35,254.73,996.18,301.43c8,11.39,17.94,21.2,30.77,26.22,44.1,17.26,144.5,23.8,212,23.8,60.82,0,116.34,14.33,170.33,14.12,98.77-.39,278.54-75.06,106.21-183.11-55.87-35-128.49-67.69-191.24-66.15-96.56,2.36-245.86,21.64-324.15,60.84-46.85,23.46-57.78,93-24.41,131,26.63,30.35,76.8,36.11,111.63,45.12,62.89,16.26,36.39,38.14,59.08,54.33,15.88,11.33,45.31,19.42,55.53,20.08,34.09,2.2,56.83-21.27,64.53-26s36.3-18.7,27.5-29.7-13.94,14.3-10.27,21.63c24.3,48.6,95.73,64.94,144.46,62.33,61.6-3.3,111.1-64.53,115.86-70.76s11.37-31.54,3.31-30.8-8.07,20.16,18.69,26c83.17,18.23,157.24-84.8,85.12-151.43-6.84-6.32-14-8-9.4,1.84,5.86,12.46,2.2-1.65,14.67-22.19,23-37.86,3.24-91-32.27-111.83-44.36-26-102.66,8.44-112.19,11.37s-28.6,19.43-15,23.83c8.26,2.68,4.27-9.47-.76-22.53C1462.5,22.41,1395.89-15,1299.59,5.51c-53.36,11.38-64.3,45.05-95,78.81-6.2,6.82-12.32,14.91-8.73,20.18,5.5,8.07,11-2.2,8.07-11.73s-7.7-17.6-29.7-34.83c-67-52.49-152.82-6.4-170.65,79.86-1.84,8.9-2.66,19.86,2.36,24.63,7.33,7,6.23-6.6,3.66-14.3s-34.46-35.93-68.93-43.26c-65.66-14-111.55,57.19-88.16,127.94,2.78,8.42,6.49,19.81,9,11,2.69-9.57-8.27-7.44-19.56-4.14-58.84,17.2-77.5,101.6-17.11,124.77,30,11.5,68.11-4.28,95.32-17.64,9.63-4.72,22.24-11,16.88-16.83-7.7-8.43-9.54,11.36-9.54,20.17,0,94.5,115.81,71.35,169.69,41,7.83-4.41,19.6-11.57,15.48-17.9-5.5-8.43-8.07,4-9.17,13.57-.6,5.22.34,20.47,2.76,36.68,4,27,12.41,43.61,26.56,58.47,15.69,16.46,27.64,25,48.91,33.15,26.63,10.14,80,33.34,102.37,63l-.34-.38c29.42,32.88,32.75,176.89-17,196.79-37,14.81-105.9,6.32-135.34-11.3-10-6-20.81-10.6-32.13-7.67-23.32,6-64.69,32.07-81.43,43.69-17.11,11.89-40.1,25.9-47.27,13.9-10.59-17.74-3.31-74.38,0-87.71A186.87,186.87,0,0,1,987.76,681l-.17.3c2.63-4.9,5.14-1.75,5.77,1.82,2.82,16-16.42,82.69-24.91,110-7.19,23.13-12,19.66-24.85-2.81-5.13-9-9.9-19-14.92-26.89-5.54-8.72-26.66-47.67-38.17-70-12.55-24.38-15-36.44-48.3-36-39.23.53-92.6,27-119.77,50.48-126,108.81-158.08,389.09-128.12,532.62,24.79,118.81,84.18,307.64,188.62,203.79,47.24-47,111.79-127.2,131.37-157.71,53.94-84.1,92.42-179.22,156.3-261.75,42.89-55.43,97.93-136.51,140.64-161.41,46-26.83,107.57-26,149.52,11.41,60.1,53.56,92,168.36,119,231.74l46.71,109.68s15.19,36,24.11,55.64c6.84,15.08,24.54,45.07,35,54.92,6.17,5.8,14.92,13.22,18,16.59,4.63,5.14,10.53,11,19,9s4.88-16.18,12.33-11.56-3.85,5.4-11,3.08c-13.78-4.42-38.45-49-46.49-62.92a35.14,35.14,0,0,1-4.26-12c-4-21.73-10,13-21.24-6.65-20.81-36.33-85.38-220.58-107.16-269.33-14.73-33-37.53-77.33-48.33-89.72-16.28-18.68-44.79-47.41-54.12-52.91-13.6-8-31.18-12.11-45-12.11-12.72,0-19.75-7.46-4.91-10.78,16.54-3.7,53.23-1.76,62.06.74,28.86,8.17,58.2,34.41,73.58,57.9,43.56,66.5,101.28,244.23,119.15,300.84,1.23,3.91,19.58,47.74,26,67.25,7.12,21.67-19.54,16-11.6,29.73,11.19,19.28-53.5,71.73-69.73,80.92-29,16.43-3.37,30.13,12.54,40.37s34.75,20.8,39.14,22.38c39,14.11,74-30.21,85.48-66.36,5.17-16.24,25.39-14.38,34.53-4.12,8.07,9.06,17.63,23.45,25.8,31.5,14.31,14.11,25,27.46,44.64,39.94,20.23,12.89,35.89,28.24,65.09,31.57,9,1,15.41,1.29,29.28,1.29s27.23,4.37,34.94,3.34c17.53-2.34,16-11,2.82-19.53-9.5-6.16-20.55-7.44-28-7.44-28.61,0-54,4-76.25-12.36-13-9.52-30.8-23.36-36.36-27.73-14.47-11.37-28.36-26.07-35.85-41.15-5.71-11.51-8.14-21.39-10.28-28.19-1.92-6.12-4.08-10.7-7.87-13.8-15-12.34-19.92,11.65-6.51,16.12a15.58,15.58,0,0,1,7.87,6.36c8.19,11.87,9.22,35.47,18.12,45.31,10.53,11.63,38.28,33.42,48.68,41.61,19.35,15.25,52.82,32.84,70.78,31.43,17-1.33,35.3-1.81,59.53,9.37,20.67,9.54,36.55,38.21,13.54,53.45-37.15,24.62-153.9,27.84-190.32,18-38-10.33-70.26-20.62-111.84-25.63-28.42-3.43-61.65-6.9-72.54-8.26-12.44-1.56-22.52-7.23-31.59-12.35-26.32-14.84-43.42,77,51.29,77.64,32.08.21,62.79,1,95.63.11,26.49-.73,77.23-.89,120.45-.87,28.85,0,57.77.41,86.61.07l488-5.74a9.25,9.25,0,0,1,9.36,9.25v7.38a9.24,9.24,0,0,1-9.15,9.24c-66.15.64-469,4.54-472.59,4.61L0,1625.61l1846.68-33.88c33.94-.71,23.69-16.49,23.69-59.52,0-5.14,20.55-7.19,14.9,1-25,36.31-190.78,25.58-229.64,27.74-14,.77-64.65,1.84-100.31,1.21-41.25-.73-84.52-9.68-88.41-61-3.28-43.26,2.65-128,53.61-98.4,22.09,12.84,35.45,15.92,50.86,12.33,21.13-4.93,39.68-23.82,46.75-43.93,3.34-9.5-15.67-21.83-24.66-28.77s-23.12-25.42-27-31.59c-29.67-47.46-62.07,79.33-112,42-13.07-9.78-30.59-24.72-44.43-40.7-38.64-44.58-114.77-139.65-124.52-199a348.61,348.61,0,0,1-3.91-67c.8-20.59,11.68-75.74,9-19-1.7,35.49-9.79,100.56-25.47,140-39.46,99.22-52.43,161.88-113.22,275"/></svg>